<?xml version="1.0" standalone="no"?>
<!DOCTYPE svg PUBLIC "-//W3C//DTD SVG 20010904//EN"
 "http://www.w3.org/TR/2001/REC-SVG-20010904/DTD/svg10.dtd">
<svg version="1.0" xmlns="http://www.w3.org/2000/svg"
 width="1680.000000pt" height="822.000000pt" viewBox="0 0 1680.000000 822.000000"
 preserveAspectRatio="xMidYMid meet">
<metadata>
Created by potrace 1.16, written by Peter Selinger 2001-2019
</metadata>
<g transform="translate(0.000000,822.000000) scale(0.100000,-0.100000)"
fill="#000000" stroke="none">
<path d="M3410 7330 c0 -282 -1 -290 -19 -278 -10 6 -26 24 -35 40 -19 31 -46
38 -46 10 0 -10 7 -28 16 -40 l15 -22 -840 0 -841 0 0 -25 0 -25 841 0 840 0
-15 -22 c-19 -26 -21 -58 -5 -58 6 0 29 19 50 43 l38 42 1 -292 0 -293 1785 0
1785 0 0 290 0 290 192 0 c181 0 190 -1 175 -17 -21 -25 -25 -57 -7 -60 8 -2
25 13 38 32 12 19 27 35 32 35 6 0 10 -103 10 -285 l0 -285 1785 0 1785 0 0
290 0 290 191 0 190 0 -15 -22 c-19 -26 -21 -58 -5 -58 6 0 29 19 50 43 l38
42 1 -292 0 -293 1785 0 1785 0 0 290 0 290 192 0 c184 0 191 -1 175 -18 -20
-22 -23 -62 -4 -62 6 0 21 13 31 29 11 15 28 33 38 40 17 11 18 0 18 -279 l0
-290 600 0 600 0 0 605 0 605 -600 0 -600 0 0 -290 c0 -168 -4 -290 -9 -290
-11 0 -61 58 -61 71 0 5 -7 9 -15 9 -20 0 -19 -39 2 -62 16 -17 9 -18 -175
-18 l-192 0 0 290 0 290 -1785 0 -1785 0 0 -292 -1 -293 -40 44 c-31 35 -42
42 -52 32 -9 -9 -8 -18 5 -41 l17 -30 -189 0 -190 0 0 290 0 290 -1785 0
-1785 0 0 -292 0 -291 -25 23 c-13 13 -27 31 -31 42 -6 20 -29 24 -39 8 -4 -6
0 -22 9 -35 9 -13 16 -27 16 -30 0 -3 -83 -5 -185 -5 l-185 0 0 290 0 290
-1785 0 -1785 0 0 -290z m1180 -315 l0 -575 -580 0 -580 0 0 575 0 575 580 0
580 0 0 -575z m1180 0 l0 -575 -575 0 -575 0 0 575 0 575 575 0 575 0 0 -575z
m1180 300 l0 -275 -290 0 -290 0 0 -25 0 -25 290 0 290 0 0 -275 0 -275 -575
0 -575 0 0 575 0 575 575 0 575 0 0 -275z m1660 -300 l0 -575 -580 0 -580 0 0
575 0 575 580 0 580 0 0 -575z m1180 0 l0 -575 -580 0 -580 0 0 575 0 575 580
0 580 0 0 -575z m1180 300 l0 -275 -290 0 -290 0 0 -25 0 -25 290 0 290 0 0
-275 0 -275 -580 0 -580 0 0 575 0 575 580 0 580 0 0 -275z m1650 -300 l0
-575 -575 0 -575 0 0 575 0 575 575 0 575 0 0 -575z m1180 0 l0 -575 -575 0
-575 0 0 575 0 575 575 0 575 0 0 -575z m1180 300 l0 -275 -290 0 -290 0 0
-25 0 -25 290 0 290 0 0 -275 0 -275 -575 0 -575 0 0 575 0 575 575 0 575 0 0
-275z m1660 -300 l0 -575 -580 0 -580 0 0 575 0 575 580 0 580 0 0 -575z"/>
<path d="M3643 7125 c-33 -23 -56 -92 -48 -144 9 -57 59 -111 103 -111 42 0
82 34 82 71 0 38 -22 38 -37 -1 -9 -24 -17 -30 -41 -30 -45 0 -67 32 -67 96 0
45 4 58 27 81 24 23 30 25 52 15 14 -6 28 -23 32 -37 11 -45 34 -30 34 23 l0
48 -58 2 c-37 1 -66 -4 -79 -13z"/>
<path d="M3860 7057 c-73 -37 -62 -162 16 -181 54 -14 114 35 114 94 0 33 -26
75 -55 88 -33 15 -44 15 -75 -1z m72 -44 c22 -20 23 -61 1 -85 -46 -51 -107
18 -73 83 13 23 47 25 72 2z"/>
<path d="M4126 7063 c-3 -3 -30 -5 -61 -4 -43 1 -55 -2 -55 -14 0 -8 9 -15 20
-15 18 0 20 -7 20 -60 0 -53 -2 -60 -20 -60 -11 0 -20 -7 -20 -15 0 -12 19
-15 110 -15 73 0 110 4 110 11 0 6 -9 13 -20 16 -17 5 -20 14 -20 68 0 38 -5
66 -12 72 -19 14 -45 22 -52 16z m28 -55 c3 -13 6 -40 6 -60 0 -38 0 -38 -40
-38 -40 0 -40 0 -40 38 0 66 59 114 74 60z"/>
<path d="M4290 7057 c-37 -18 -40 -69 -5 -85 14 -7 36 -12 49 -12 29 0 61 -24
52 -38 -4 -7 -22 -12 -40 -12 -25 0 -38 7 -50 25 -22 33 -36 24 -36 -24 l0
-37 64 1 c72 1 96 14 96 55 0 35 -16 48 -77 63 -56 14 -63 31 -14 35 23 2 37
-2 43 -12 16 -28 38 -19 38 17 0 31 -1 32 -48 34 -26 1 -59 -3 -72 -10z"/>
<path d="M5167 7115 c-10 -14 -24 -25 -32 -25 -8 0 -15 -7 -15 -16 0 -12 7
-15 30 -12 l30 5 0 -79 0 -78 -30 0 c-20 0 -30 -5 -30 -15 0 -12 15 -15 76
-15 56 0 75 3 72 13 -3 6 -17 13 -31 15 l-27 3 0 115 c0 122 -8 137 -43 89z"/>
<path d="M7653 7125 c-33 -23 -56 -92 -48 -144 9 -57 59 -111 103 -111 42 0
82 34 82 71 0 38 -22 38 -37 -1 -9 -24 -17 -30 -41 -30 -45 0 -67 32 -67 96 0
45 4 58 27 81 24 23 30 25 52 15 14 -6 28 -23 32 -37 11 -45 34 -30 34 23 l0
48 -58 2 c-37 1 -66 -4 -79 -13z"/>
<path d="M7880 7057 c-73 -37 -62 -162 16 -181 54 -14 114 35 114 94 0 33 -26
75 -55 88 -33 15 -44 15 -75 -1z m72 -44 c22 -20 23 -61 1 -85 -46 -51 -107
18 -73 83 13 23 47 25 72 2z"/>
<path d="M8146 7063 c-3 -3 -30 -5 -61 -4 -43 1 -55 -2 -55 -14 0 -8 9 -15 20
-15 18 0 20 -7 20 -60 0 -53 -2 -60 -20 -60 -11 0 -20 -7 -20 -15 0 -12 19
-15 110 -15 73 0 110 4 110 11 0 6 -9 13 -20 16 -17 5 -20 14 -20 68 0 38 -5
66 -12 72 -19 14 -45 22 -52 16z m28 -55 c3 -13 6 -40 6 -60 0 -38 0 -38 -40
-38 -40 0 -40 0 -40 38 0 66 59 114 74 60z"/>
<path d="M8310 7057 c-37 -18 -40 -69 -5 -85 14 -7 36 -12 49 -12 29 0 61 -24
52 -38 -4 -7 -22 -12 -40 -12 -25 0 -38 7 -50 25 -22 33 -36 24 -36 -24 l0
-37 64 1 c72 1 96 14 96 55 0 35 -16 48 -77 63 -56 14 -63 31 -14 35 23 2 37
-2 43 -12 16 -28 38 -19 38 17 0 31 -1 32 -48 34 -26 1 -59 -3 -72 -10z"/>
<path d="M9142 7117 c-28 -30 -29 -67 -2 -67 13 0 20 7 20 19 0 29 27 46 57
35 66 -23 55 -74 -32 -145 -36 -29 -65 -58 -65 -66 0 -10 22 -13 90 -13 89 0
90 0 90 25 0 25 -23 35 -35 15 -3 -5 -23 -10 -43 -10 l-37 0 47 43 c74 67 88
118 43 162 -33 34 -102 35 -133 2z"/>
<path d="M11673 7125 c-33 -23 -56 -92 -48 -144 9 -57 59 -111 103 -111 42 0
82 34 82 71 0 38 -22 38 -37 -1 -9 -24 -17 -30 -41 -30 -45 0 -67 32 -67 96 0
45 4 58 27 81 24 23 30 25 52 15 14 -6 28 -23 32 -37 11 -45 34 -30 34 23 l0
48 -58 2 c-37 1 -66 -4 -79 -13z"/>
<path d="M11900 7057 c-73 -37 -62 -162 16 -181 54 -14 114 35 114 94 0 33
-26 75 -55 88 -33 15 -44 15 -75 -1z m72 -44 c22 -20 23 -61 1 -85 -46 -51
-107 18 -73 83 13 23 47 25 72 2z"/>
<path d="M12156 7063 c-3 -3 -30 -5 -61 -4 -43 1 -55 -2 -55 -14 0 -8 9 -15
20 -15 18 0 20 -7 20 -60 0 -53 -2 -60 -20 -60 -11 0 -20 -7 -20 -15 0 -12 19
-15 110 -15 73 0 110 4 110 11 0 6 -9 13 -20 16 -17 5 -20 14 -20 68 0 38 -5
66 -12 72 -19 14 -45 22 -52 16z m28 -55 c3 -13 6 -40 6 -60 0 -38 0 -38 -40
-38 -40 0 -40 0 -40 38 0 66 59 114 74 60z"/>
<path d="M12320 7057 c-37 -18 -40 -69 -5 -85 14 -7 36 -12 49 -12 29 0 61
-24 52 -38 -4 -7 -22 -12 -40 -12 -25 0 -38 7 -50 25 -22 33 -36 24 -36 -24
l0 -37 64 1 c72 1 96 14 96 55 0 35 -16 48 -77 63 -56 14 -63 31 -14 35 23 2
37 -2 43 -12 16 -28 38 -19 38 17 0 31 -1 32 -48 34 -26 1 -59 -3 -72 -10z"/>
<path d="M13168 7129 c-25 -14 -24 -59 1 -59 10 0 21 9 24 20 3 13 13 20 29
20 34 0 50 -14 46 -41 -2 -18 -12 -26 -40 -33 -46 -11 -51 -36 -8 -36 28 0 70
-29 70 -48 0 -13 -32 -40 -50 -42 -35 -5 -51 2 -60 25 -16 42 -55 30 -43 -14
11 -44 88 -64 142 -36 44 22 56 82 25 116 -12 13 -13 22 -5 38 18 32 13 69
-11 85 -25 18 -94 21 -120 5z"/>
<path d="M15740 7126 c0 -8 5 -18 10 -21 6 -3 10 -48 10 -101 0 -56 -4 -94
-10 -94 -5 0 -10 -7 -10 -15 0 -11 11 -15 40 -15 28 0 40 4 40 14 0 8 -5 16
-11 18 -6 2 -9 31 -7 73 l3 70 31 -85 c25 -67 36 -86 53 -88 20 -3 21 0 21
106 0 88 3 111 15 116 8 3 15 12 15 21 0 11 -11 15 -40 15 -33 0 -40 -3 -40
-20 0 -11 5 -20 10 -20 6 0 10 -32 9 -77 l0 -78 -32 85 c-18 47 -36 91 -40 98
-12 17 -67 16 -67 -2z"/>
<path d="M16034 7126 c-8 -21 3 -36 27 -36 15 0 20 6 17 22 -4 27 -35 37 -44
14z"/>
<path d="M16195 7131 c-11 -18 5 -31 36 -31 l29 0 0 -95 0 -95 -35 0 c-24 0
-35 -5 -35 -15 0 -12 17 -15 90 -15 73 0 90 3 90 15 0 10 -11 15 -35 15 l-34
0 -3 113 -3 112 -47 3 c-25 2 -49 -2 -53 -7z"/>
<path d="M15980 7045 c0 -10 11 -15 35 -15 l35 0 0 -60 0 -60 -35 0 c-24 0
-35 -5 -35 -15 0 -12 16 -15 80 -15 64 0 80 3 80 15 0 10 -10 15 -30 15 l-30
0 0 75 0 75 -50 0 c-38 0 -50 -4 -50 -15z"/>
<path d="M1292 7518 c3 -7 14 -14 26 -16 20 -3 22 -9 22 -68 0 -62 -1 -64 -25
-64 -14 0 -25 -4 -25 -10 0 -6 28 -10 65 -10 37 0 65 4 65 10 0 6 -11 10 -25
10 -25 0 -25 1 -25 80 l0 80 -41 0 c-28 0 -39 -4 -37 -12z"/>
<path d="M1490 7510 c0 -15 5 -20 18 -18 9 2 17 10 17 18 0 8 -8 16 -17 18
-13 2 -18 -3 -18 -18z"/>
<path d="M1953 7511 c-29 -24 -30 -45 -3 -38 18 5 20 0 20 -49 0 -47 -2 -54
-20 -54 -11 0 -20 -4 -20 -10 0 -5 23 -10 50 -10 28 0 50 5 50 10 0 6 -7 10
-15 10 -12 0 -15 16 -15 80 0 86 -7 95 -47 61z"/>
<path d="M1780 7496 c0 -7 -9 -16 -21 -19 -23 -6 -17 -27 7 -27 10 0 14 -13
14 -45 0 -38 4 -47 23 -54 12 -5 29 -6 37 -3 17 5 40 31 40 44 0 15 -29 8 -38
-8 -14 -25 -32 -7 -32 32 0 31 2 34 30 34 20 0 30 5 30 15 0 10 -10 15 -30 15
-20 0 -30 5 -30 15 0 8 -7 15 -15 15 -8 0 -15 -6 -15 -14z"/>
<path d="M1450 7466 c0 -10 9 -16 25 -16 23 0 25 -4 25 -40 0 -36 -2 -40 -25
-40 -14 0 -25 -4 -25 -10 0 -6 27 -10 60 -10 33 0 60 4 60 10 0 6 -9 10 -19
10 -17 0 -20 8 -23 53 l-3 52 -37 3 c-29 2 -38 0 -38 -12z"/>
<path d="M1622 7471 c-8 -4 -12 -19 -10 -32 2 -18 13 -26 41 -34 43 -12 53
-28 19 -33 -13 -2 -25 3 -28 12 -11 28 -36 19 -32 -11 3 -26 6 -28 45 -27 65
2 92 34 57 68 -8 9 -11 16 -5 16 6 0 11 11 11 25 0 23 -4 25 -42 25 -24 0 -49
-4 -56 -9z m68 -31 c0 -5 -9 -10 -19 -10 -11 0 -23 5 -26 10 -4 6 5 10 19 10
14 0 26 -4 26 -10z"/>
<path d="M3410 5079 c0 -312 -1 -318 -48 -248 -13 19 -29 34 -35 34 -18 0 -20
-40 -2 -55 8 -7 15 -16 15 -21 0 -5 -365 -9 -840 -9 -833 0 -840 0 -840 -20 0
-20 7 -20 841 -20 l841 0 -16 -25 c-19 -28 -21 -55 -5 -55 6 0 29 19 50 43
l38 42 1 -292 0 -293 883 0 882 -1 -42 -38 c-24 -21 -43 -44 -43 -50 0 -16 32
-14 58 5 12 8 22 12 22 7 0 -48 25 -251 40 -336 86 -453 366 -804 815 -1022
245 -119 504 -196 860 -255 359 -59 622 -79 1165 -87 450 -6 823 3 1675 42
978 45 1098 48 1595 48 485 0 681 -7 1000 -39 522 -51 940 -158 1256 -320 320
-164 558 -409 682 -701 l31 -73 -1424 0 -1425 0 0 -292 -1 -293 -38 43 c-21
23 -44 42 -50 42 -16 0 -14 -27 5 -55 l16 -25 -191 0 -191 0 0 290 0 290
-1785 0 -1785 0 0 -285 c0 -271 -1 -285 -18 -276 -10 5 -24 21 -32 36 -16 30
-47 30 -42 0 2 -11 11 -28 19 -37 15 -17 6 -18 -175 -18 l-192 0 0 290 0 290
-1785 0 -1785 0 0 -292 -1 -293 -38 43 c-21 23 -44 42 -50 42 -16 0 -14 -32 5
-58 l15 -22 -840 0 c-834 0 -841 0 -841 -20 0 -20 7 -20 845 -20 l846 0 -22
-29 c-21 -28 -21 -61 0 -61 5 0 19 15 30 34 12 19 28 37 36 40 13 5 15 -33 15
-284 l0 -290 1785 0 1785 0 0 295 0 295 190 0 190 0 -19 -31 c-20 -33 -18 -59
4 -59 8 0 16 8 19 18 4 11 18 29 31 42 l25 23 0 -291 0 -292 1785 0 1785 0 0
295 0 295 196 0 195 0 -20 -26 c-48 -61 -13 -80 39 -22 l39 43 1 -292 0 -293
1785 0 1785 0 0 605 0 605 -338 0 -339 0 -11 39 c-21 67 -116 244 -177 326
-292 397 -819 642 -1610 749 -590 81 -1239 86 -2670 21 -1440 -65 -1932 -69
-2505 -20 -831 72 -1395 268 -1734 602 -241 238 -381 561 -403 932 -6 105 -6
106 14 89 23 -21 63 -24 63 -5 0 7 -13 21 -30 30 -16 10 -35 27 -40 38 -11 19
0 19 870 19 l880 0 0 290 0 290 192 0 c181 0 190 -1 176 -17 -49 -58 -16 -82
36 -26 l35 38 1 -287 0 -288 1785 0 1785 0 0 290 0 290 190 0 c105 0 190 -4
190 -9 0 -5 -7 -14 -15 -21 -8 -7 -15 -21 -15 -31 0 -30 33 -22 55 13 43 68
45 58 45 -246 l0 -286 605 0 605 0 0 605 0 605 -605 0 -605 0 0 -290 c0 -251
-2 -289 -15 -284 -8 3 -24 21 -36 40 -11 19 -25 34 -30 34 -21 0 -21 -33 0
-61 l22 -29 -196 0 -195 0 0 295 0 295 -1785 0 -1785 0 0 -292 -1 -293 -40 45
c-32 37 -41 42 -49 30 -6 -10 -3 -25 10 -47 l19 -33 -189 0 -190 0 0 295 0
295 -1785 0 -1785 0 0 -291z m1180 -319 l0 -580 -580 0 -580 0 0 580 0 580
580 0 580 0 0 -580z m1180 0 l0 -580 -575 0 -575 0 0 580 0 580 575 0 575 0 0
-580z m1180 300 l0 -280 -290 0 c-283 0 -290 0 -290 -20 0 -20 7 -20 290 -20
l290 0 0 -280 0 -280 -575 0 -575 0 0 580 0 580 575 0 575 0 0 -280z m1660
-300 l0 -580 -580 0 -580 0 0 580 0 580 580 0 580 0 0 -580z m1180 0 l0 -580
-580 0 -580 0 0 580 0 580 580 0 580 0 0 -580z m1180 300 l0 -280 -290 0
c-283 0 -290 0 -290 -20 0 -20 7 -20 290 -20 l290 0 0 -280 0 -280 -580 0
-580 0 0 580 0 580 580 0 580 0 0 -280z m1650 -300 l0 -580 -575 0 -575 0 0
580 0 580 575 0 575 0 0 -580z m-8030 -4025 l0 -575 -580 0 -580 0 0 575 0
575 580 0 580 0 0 -575z m1180 0 l0 -575 -575 0 -575 0 0 575 0 575 575 0 575
0 0 -575z m1180 300 l0 -275 -290 0 c-283 0 -290 0 -290 -20 0 -20 7 -20 290
-20 l290 0 0 -280 0 -280 -575 0 -575 0 0 575 0 575 575 0 575 0 0 -275z
m1660 -300 l0 -575 -580 0 -580 0 0 575 0 575 580 0 580 0 0 -575z m1180 0 l0
-575 -580 0 -580 0 0 575 0 575 580 0 580 0 0 -575z m1180 300 l0 -275 -290 0
c-283 0 -290 0 -290 -20 0 -20 7 -20 290 -20 l290 0 0 -280 0 -280 -580 0
-580 0 0 575 0 575 580 0 580 0 0 -275z m1650 -300 l0 -575 -575 0 -575 0 0
575 0 575 575 0 575 0 0 -575z m1180 0 l0 -575 -575 0 -575 0 0 575 0 575 575
0 575 0 0 -575z m518 503 c33 -112 53 -241 59 -380 6 -126 6 -128 29 -128 28
0 29 6 13 185 -8 102 -42 294 -65 373 l-6 22 316 0 316 0 0 -575 0 -575 -575
0 -575 0 0 575 0 575 234 0 233 0 21 -72z"/>
<path d="M3643 4875 c-33 -23 -56 -92 -48 -144 9 -57 59 -111 103 -111 42 0
82 34 82 71 0 38 -22 38 -37 -1 -9 -24 -17 -30 -41 -30 -45 0 -67 32 -67 96 0
45 4 58 27 81 24 23 30 25 52 15 14 -6 28 -23 32 -37 11 -45 34 -30 34 23 l0
48 -58 2 c-37 1 -66 -4 -79 -13z"/>
<path d="M3860 4807 c-73 -37 -62 -162 16 -181 54 -14 114 35 114 94 0 33 -26
75 -55 88 -33 15 -44 15 -75 -1z m72 -44 c22 -20 23 -61 1 -85 -46 -51 -107
18 -73 83 13 23 47 25 72 2z"/>
<path d="M4126 4813 c-3 -3 -30 -5 -61 -4 -43 1 -55 -2 -55 -14 0 -8 9 -15 20
-15 18 0 20 -7 20 -60 0 -53 -2 -60 -20 -60 -11 0 -20 -7 -20 -15 0 -12 19
-15 110 -15 73 0 110 4 110 11 0 6 -9 13 -20 16 -17 5 -20 14 -20 68 0 38 -5
66 -12 72 -19 14 -45 22 -52 16z m28 -55 c3 -13 6 -40 6 -60 0 -38 0 -38 -40
-38 -40 0 -40 0 -40 38 0 66 59 114 74 60z"/>
<path d="M4290 4807 c-37 -18 -40 -69 -5 -85 14 -7 36 -12 49 -12 29 0 61 -24
52 -38 -4 -7 -22 -12 -40 -12 -25 0 -38 7 -50 25 -22 33 -36 24 -36 -24 l0
-37 64 1 c72 1 96 14 96 55 0 35 -16 48 -77 63 -56 14 -63 31 -14 35 23 2 37
-2 43 -12 16 -28 38 -19 38 17 0 31 -1 32 -48 34 -26 1 -59 -3 -72 -10z"/>
<path d="M5141 4813 c-68 -104 -67 -113 9 -113 53 0 60 -2 60 -20 0 -13 -7
-20 -20 -20 -11 0 -20 -7 -20 -15 0 -12 13 -15 55 -15 42 0 55 3 55 15 0 8 -9
15 -20 15 -13 0 -20 7 -20 20 0 15 7 20 25 20 16 0 25 6 25 15 0 9 -9 15 -25
15 -25 0 -25 1 -25 80 0 78 -1 80 -25 80 -19 0 -34 -15 -74 -77z m69 -23 l0
-60 -40 0 -39 0 37 60 c20 33 38 60 40 60 1 0 2 -27 2 -60z"/>
<path d="M7653 4875 c-33 -23 -56 -92 -48 -144 9 -57 59 -111 103 -111 42 0
82 34 82 71 0 38 -22 38 -37 -1 -9 -24 -17 -30 -41 -30 -45 0 -67 32 -67 96 0
45 4 58 27 81 24 23 30 25 52 15 14 -6 28 -23 32 -37 11 -45 34 -30 34 23 l0
48 -58 2 c-37 1 -66 -4 -79 -13z"/>
<path d="M7880 4807 c-73 -37 -62 -162 16 -181 54 -14 114 35 114 94 0 33 -26
75 -55 88 -33 15 -44 15 -75 -1z m72 -44 c22 -20 23 -61 1 -85 -46 -51 -107
18 -73 83 13 23 47 25 72 2z"/>
<path d="M8146 4813 c-3 -3 -30 -5 -61 -4 -43 1 -55 -2 -55 -14 0 -8 9 -15 20
-15 18 0 20 -7 20 -60 0 -53 -2 -60 -20 -60 -11 0 -20 -7 -20 -15 0 -12 19
-15 110 -15 73 0 110 4 110 11 0 6 -9 13 -20 16 -17 5 -20 14 -20 68 0 38 -5
66 -12 72 -19 14 -45 22 -52 16z m28 -55 c3 -13 6 -40 6 -60 0 -38 0 -38 -40
-38 -40 0 -40 0 -40 38 0 66 59 114 74 60z"/>
<path d="M8310 4807 c-37 -18 -40 -69 -5 -85 14 -7 36 -12 49 -12 29 0 61 -24
52 -38 -4 -7 -22 -12 -40 -12 -25 0 -38 7 -50 25 -22 33 -36 24 -36 -24 l0
-37 64 1 c72 1 96 14 96 55 0 35 -16 48 -77 63 -56 14 -63 31 -14 35 23 2 37
-2 43 -12 16 -28 38 -19 38 17 0 31 -1 32 -48 34 -26 1 -59 -3 -72 -10z"/>
<path d="M9137 4884 c-4 -4 -7 -38 -7 -76 0 -61 2 -68 19 -68 11 0 23 5 26 10
9 15 61 12 74 -4 7 -8 11 -27 9 -43 -6 -52 -89 -65 -96 -14 -5 31 -42 29 -42
-3 0 -39 46 -69 95 -63 76 11 109 87 62 143 -18 21 -31 26 -65 26 -40 -1 -42
1 -42 28 0 28 1 29 58 32 43 2 57 7 57 18 0 12 -16 16 -70 18 -39 1 -74 0 -78
-4z"/>
<path d="M11730 4876 c0 -8 5 -18 10 -21 6 -3 10 -48 10 -101 0 -56 -4 -94
-10 -94 -5 0 -10 -7 -10 -15 0 -11 11 -15 40 -15 28 0 40 4 40 14 0 8 -5 16
-11 18 -6 2 -9 31 -7 73 l3 70 31 -85 c25 -67 36 -86 53 -88 20 -3 21 0 21
106 0 88 3 111 15 116 8 3 15 12 15 21 0 11 -11 15 -40 15 -33 0 -40 -3 -40
-20 0 -11 5 -20 10 -20 6 0 10 -32 9 -77 l0 -78 -32 85 c-18 47 -36 91 -40 98
-12 17 -67 16 -67 -2z"/>
<path d="M12014 4876 c-8 -21 3 -36 27 -36 15 0 20 6 17 22 -4 27 -35 37 -44
14z"/>
<path d="M12175 4881 c-11 -18 5 -31 36 -31 l29 0 0 -95 0 -95 -35 0 c-24 0
-35 -5 -35 -15 0 -12 17 -15 90 -15 73 0 90 3 90 15 0 10 -11 15 -35 15 l-34
0 -3 113 -3 112 -47 3 c-25 2 -49 -2 -53 -7z"/>
<path d="M11960 4795 c0 -10 11 -15 35 -15 l35 0 0 -60 0 -60 -35 0 c-24 0
-35 -5 -35 -15 0 -12 16 -15 80 -15 64 0 80 3 80 15 0 10 -10 15 -30 15 l-30
0 0 75 0 75 -50 0 c-38 0 -50 -4 -50 -15z"/>
<path d="M3643 845 c-33 -23 -56 -92 -48 -144 9 -57 59 -111 103 -111 42 0 82
34 82 71 0 38 -22 38 -37 -1 -9 -24 -17 -30 -41 -30 -45 0 -67 32 -67 96 0 45
4 58 27 81 24 23 30 25 52 15 14 -6 28 -23 32 -37 11 -45 34 -30 34 23 l0 48
-58 2 c-37 1 -66 -4 -79 -13z"/>
<path d="M3860 777 c-73 -37 -62 -162 16 -181 54 -14 114 35 114 94 0 33 -26
75 -55 88 -33 15 -44 15 -75 -1z m72 -44 c22 -20 23 -61 1 -85 -46 -51 -107
18 -73 83 13 23 47 25 72 2z"/>
<path d="M4126 783 c-3 -3 -30 -5 -61 -4 -43 1 -55 -2 -55 -14 0 -8 9 -15 20
-15 18 0 20 -7 20 -60 0 -53 -2 -60 -20 -60 -11 0 -20 -7 -20 -15 0 -12 19
-15 110 -15 73 0 110 4 110 11 0 6 -9 13 -20 16 -17 5 -20 14 -20 68 0 38 -5
66 -12 72 -19 14 -45 22 -52 16z m28 -55 c3 -13 6 -40 6 -60 0 -38 0 -38 -40
-38 -40 0 -40 0 -40 38 0 66 59 114 74 60z"/>
<path d="M4290 777 c-37 -18 -40 -69 -5 -85 14 -7 36 -12 49 -12 29 0 61 -24
52 -38 -4 -7 -22 -12 -40 -12 -25 0 -38 7 -50 25 -22 33 -36 24 -36 -24 l0
-37 64 1 c72 1 96 14 96 55 0 35 -16 48 -77 63 -56 14 -63 31 -14 35 23 2 37
-2 43 -12 16 -28 38 -19 38 17 0 31 -1 32 -48 34 -26 1 -59 -3 -72 -10z"/>
<path d="M5167 835 c-10 -14 -24 -25 -32 -25 -8 0 -15 -7 -15 -16 0 -12 7 -15
30 -12 l30 5 0 -79 0 -78 -30 0 c-20 0 -30 -5 -30 -15 0 -12 15 -15 76 -15 56
0 75 3 72 13 -3 6 -17 13 -31 15 l-27 3 0 115 c0 122 -8 137 -43 89z"/>
<path d="M7653 845 c-33 -23 -56 -92 -48 -144 9 -57 59 -111 103 -111 42 0 82
34 82 71 0 38 -22 38 -37 -1 -9 -24 -17 -30 -41 -30 -45 0 -67 32 -67 96 0 45
4 58 27 81 24 23 30 25 52 15 14 -6 28 -23 32 -37 11 -45 34 -30 34 23 l0 48
-58 2 c-37 1 -66 -4 -79 -13z"/>
<path d="M7880 777 c-73 -37 -62 -162 16 -181 54 -14 114 35 114 94 0 33 -26
75 -55 88 -33 15 -44 15 -75 -1z m72 -44 c22 -20 23 -61 1 -85 -46 -51 -107
18 -73 83 13 23 47 25 72 2z"/>
<path d="M8146 783 c-3 -3 -30 -5 -61 -4 -43 1 -55 -2 -55 -14 0 -8 9 -15 20
-15 18 0 20 -7 20 -60 0 -53 -2 -60 -20 -60 -11 0 -20 -7 -20 -15 0 -12 19
-15 110 -15 73 0 110 4 110 11 0 6 -9 13 -20 16 -17 5 -20 14 -20 68 0 38 -5
66 -12 72 -19 14 -45 22 -52 16z m28 -55 c3 -13 6 -40 6 -60 0 -38 0 -38 -40
-38 -40 0 -40 0 -40 38 0 66 59 114 74 60z"/>
<path d="M8310 777 c-37 -18 -40 -69 -5 -85 14 -7 36 -12 49 -12 29 0 61 -24
52 -38 -4 -7 -22 -12 -40 -12 -25 0 -38 7 -50 25 -22 33 -36 24 -36 -24 l0
-37 64 1 c72 1 96 14 96 55 0 35 -16 48 -77 63 -56 14 -63 31 -14 35 23 2 37
-2 43 -12 16 -28 38 -19 38 17 0 31 -1 32 -48 34 -26 1 -59 -3 -72 -10z"/>
<path d="M9142 837 c-28 -30 -29 -67 -2 -67 13 0 20 7 20 19 0 29 27 46 57 35
66 -23 55 -74 -32 -145 -36 -29 -65 -58 -65 -66 0 -10 22 -13 90 -13 89 0 90
0 90 25 0 25 -23 35 -35 15 -3 -5 -23 -10 -43 -10 l-37 0 47 43 c74 67 88 118
43 162 -33 34 -102 35 -133 2z"/>
<path d="M11673 845 c-33 -23 -56 -92 -48 -144 9 -57 59 -111 103 -111 42 0
82 34 82 71 0 38 -22 38 -37 -1 -9 -24 -17 -30 -41 -30 -45 0 -67 32 -67 96 0
45 4 58 27 81 24 23 30 25 52 15 14 -6 28 -23 32 -37 11 -45 34 -30 34 23 l0
48 -58 2 c-37 1 -66 -4 -79 -13z"/>
<path d="M11900 777 c-73 -37 -62 -162 16 -181 54 -14 114 35 114 94 0 33 -26
75 -55 88 -33 15 -44 15 -75 -1z m72 -44 c22 -20 23 -61 1 -85 -46 -51 -107
18 -73 83 13 23 47 25 72 2z"/>
<path d="M12156 783 c-3 -3 -30 -5 -61 -4 -43 1 -55 -2 -55 -14 0 -8 9 -15 20
-15 18 0 20 -7 20 -60 0 -53 -2 -60 -20 -60 -11 0 -20 -7 -20 -15 0 -12 19
-15 110 -15 73 0 110 4 110 11 0 6 -9 13 -20 16 -17 5 -20 14 -20 68 0 38 -5
66 -12 72 -19 14 -45 22 -52 16z m28 -55 c3 -13 6 -40 6 -60 0 -38 0 -38 -40
-38 -40 0 -40 0 -40 38 0 66 59 114 74 60z"/>
<path d="M12320 777 c-37 -18 -40 -69 -5 -85 14 -7 36 -12 49 -12 29 0 61 -24
52 -38 -4 -7 -22 -12 -40 -12 -25 0 -38 7 -50 25 -22 33 -36 24 -36 -24 l0
-37 64 1 c72 1 96 14 96 55 0 35 -16 48 -77 63 -56 14 -63 31 -14 35 23 2 37
-2 43 -12 16 -28 38 -19 38 17 0 31 -1 32 -48 34 -26 1 -59 -3 -72 -10z"/>
<path d="M13168 849 c-25 -14 -24 -59 1 -59 10 0 21 9 24 20 3 13 13 20 29 20
34 0 50 -14 46 -41 -2 -18 -12 -26 -40 -33 -46 -11 -51 -36 -8 -36 28 0 70
-29 70 -48 0 -13 -32 -40 -50 -42 -35 -5 -51 2 -60 25 -16 42 -55 30 -43 -14
11 -44 88 -64 142 -36 44 22 56 82 25 116 -12 13 -13 22 -5 38 18 32 13 69
-11 85 -25 18 -94 21 -120 5z"/>
<path d="M1292 5268 c3 -7 14 -14 26 -16 20 -3 22 -9 22 -68 0 -62 -1 -64 -25
-64 -14 0 -25 -4 -25 -10 0 -6 28 -10 65 -10 37 0 65 4 65 10 0 6 -11 10 -25
10 -25 0 -25 1 -25 80 l0 80 -41 0 c-28 0 -39 -4 -37 -12z"/>
<path d="M1490 5260 c0 -15 5 -20 18 -18 9 2 17 10 17 18 0 8 -8 16 -17 18
-13 2 -18 -3 -18 -18z"/>
<path d="M1925 5264 c-18 -18 -17 -45 2 -51 7 -3 17 7 23 21 11 29 13 30 41
16 32 -17 22 -46 -31 -91 -27 -23 -50 -46 -50 -51 0 -4 29 -8 65 -8 58 0 65 2
65 20 0 21 -15 27 -25 10 -3 -5 -16 -10 -28 -10 -19 0 -17 4 16 36 41 40 49
81 21 108 -20 21 -78 20 -99 0z"/>
<path d="M1780 5246 c0 -7 -9 -16 -21 -19 -23 -6 -17 -27 7 -27 10 0 14 -13
14 -45 0 -38 4 -47 23 -54 12 -5 29 -6 37 -3 17 5 40 31 40 44 0 15 -29 8 -38
-8 -14 -25 -32 -7 -32 32 0 31 2 34 30 34 20 0 30 5 30 15 0 10 -10 15 -30 15
-20 0 -30 5 -30 15 0 8 -7 15 -15 15 -8 0 -15 -6 -15 -14z"/>
<path d="M1450 5216 c0 -10 9 -16 25 -16 23 0 25 -4 25 -40 0 -36 -2 -40 -25
-40 -14 0 -25 -4 -25 -10 0 -6 27 -10 60 -10 33 0 60 4 60 10 0 6 -9 10 -19
10 -17 0 -20 8 -23 53 l-3 52 -37 3 c-29 2 -38 0 -38 -12z"/>
<path d="M1622 5221 c-8 -4 -12 -19 -10 -32 2 -18 13 -26 41 -34 43 -12 53
-28 19 -33 -13 -2 -25 3 -28 12 -11 28 -36 19 -32 -11 3 -26 6 -28 45 -27 65
2 92 34 57 68 -8 9 -11 16 -5 16 6 0 11 11 11 25 0 23 -4 25 -42 25 -24 0 -49
-4 -56 -9z m68 -31 c0 -5 -9 -10 -19 -10 -11 0 -23 5 -26 10 -4 6 5 10 19 10
14 0 26 -4 26 -10z"/>
<path d="M1130 1245 c0 -8 5 -15 10 -15 6 0 10 -4 10 -10 0 -5 -13 -10 -28
-10 -36 0 -62 -28 -62 -66 0 -52 21 -69 81 -66 52 2 75 11 52 19 -9 3 -13 30
-13 84 0 78 0 79 -25 79 -16 0 -25 -6 -25 -15z m18 -96 c4 -34 -22 -57 -43
-39 -16 13 -20 51 -8 64 16 16 48 1 51 -25z"/>
<path d="M1372 1248 c3 -7 14 -14 26 -16 20 -3 22 -9 22 -68 0 -62 -1 -64 -25
-64 -14 0 -25 -4 -25 -10 0 -6 28 -10 65 -10 37 0 65 4 65 10 0 6 -11 10 -25
10 -25 0 -25 1 -25 80 l0 80 -41 0 c-28 0 -39 -4 -37 -12z"/>
<path d="M1570 1240 c0 -15 5 -20 18 -18 9 2 17 10 17 18 0 8 -8 16 -17 18
-13 2 -18 -3 -18 -18z"/>
<path d="M2023 1241 c-29 -24 -30 -45 -3 -38 18 5 20 0 20 -49 0 -47 -2 -54
-20 -54 -11 0 -20 -4 -20 -10 0 -5 23 -10 50 -10 28 0 50 5 50 10 0 6 -7 10
-15 10 -12 0 -15 16 -15 80 0 86 -7 95 -47 61z"/>
<path d="M2292 1248 c3 -7 14 -14 26 -16 20 -3 22 -9 22 -68 0 -62 -1 -64 -25
-64 -14 0 -25 -4 -25 -10 0 -6 28 -10 65 -10 37 0 65 4 65 10 0 6 -11 10 -25
10 -25 0 -25 1 -25 80 l0 80 -41 0 c-28 0 -39 -4 -37 -12z"/>
<path d="M2500 1240 c0 -15 5 -20 18 -18 9 2 17 10 17 18 0 8 -8 16 -17 18
-13 2 -18 -3 -18 -18z"/>
<path d="M2925 1244 c-18 -18 -17 -45 2 -51 7 -3 17 7 23 21 11 29 13 30 41
16 32 -17 22 -46 -31 -91 -27 -23 -50 -46 -50 -51 0 -4 29 -8 65 -8 58 0 65 2
65 20 0 21 -15 27 -25 10 -3 -5 -16 -10 -28 -10 -19 0 -17 4 16 36 41 40 49
81 21 108 -20 21 -78 20 -99 0z"/>
<path d="M1860 1226 c0 -7 -9 -16 -21 -19 -23 -6 -17 -27 7 -27 10 0 14 -13
14 -45 0 -38 4 -47 23 -54 12 -5 29 -6 37 -3 17 5 40 31 40 44 0 15 -29 8 -38
-8 -14 -25 -32 -7 -32 32 0 31 2 34 30 34 20 0 30 5 30 15 0 10 -10 15 -30 15
-20 0 -30 5 -30 15 0 8 -7 15 -15 15 -8 0 -15 -6 -15 -14z"/>
<path d="M2790 1226 c0 -7 -9 -16 -21 -19 -23 -6 -17 -27 7 -27 10 0 14 -13
14 -45 0 -38 4 -47 23 -54 12 -5 29 -6 37 -3 17 5 40 31 40 44 0 15 -29 8 -38
-8 -14 -25 -32 -7 -32 32 0 31 2 34 30 34 20 0 30 5 30 15 0 10 -10 15 -30 15
-20 0 -30 5 -30 15 0 8 -7 15 -15 15 -8 0 -15 -6 -15 -14z"/>
<path d="M307 1203 c-4 -3 -7 -13 -7 -20 0 -10 9 -12 35 -7 23 4 35 2 35 -5 0
-6 -10 -11 -23 -11 -54 0 -76 -53 -31 -75 24 -12 124 -7 124 6 0 5 -7 9 -15 9
-11 0 -15 11 -15 39 0 23 -7 46 -16 55 -15 16 -75 22 -87 9z m73 -77 c0 -17
-35 -30 -51 -20 -9 5 -6 11 6 21 24 17 45 17 45 -1z"/>
<path d="M430 1194 c0 -8 5 -14 10 -14 6 0 10 -30 10 -70 0 -40 -4 -70 -10
-70 -5 0 -10 -7 -10 -15 0 -11 11 -15 40 -15 29 0 40 4 40 15 0 8 -7 15 -15
15 -8 0 -15 9 -15 19 0 16 7 19 32 19 58 -2 90 70 49 111 -25 25 -131 29 -131
5z m108 -26 c16 -16 15 -33 -4 -52 -22 -22 -33 -20 -46 9 -18 40 20 73 50 43z"/>
<path d="M590 1194 c0 -8 5 -14 10 -14 6 0 10 -30 10 -70 0 -40 -4 -70 -10
-70 -5 0 -10 -7 -10 -15 0 -11 11 -15 40 -15 29 0 40 4 40 15 0 8 -7 15 -15
15 -8 0 -15 9 -15 19 0 16 7 19 32 19 58 -2 90 70 49 111 -25 25 -131 29 -131
5z m108 -26 c16 -16 15 -33 -4 -52 -22 -22 -33 -20 -46 9 -18 40 20 73 50 43z"/>
<path d="M770 1190 c-36 -36 -15 -105 35 -111 33 -5 75 10 75 26 0 18 -14 19
-40 3 -16 -10 -23 -10 -37 5 -16 16 -15 17 30 17 43 0 47 2 47 23 0 52 -71 76
-110 37z m75 -20 c4 -6 -7 -10 -25 -10 -18 0 -29 4 -25 10 3 6 15 10 25 10 10
0 22 -4 25 -10z"/>
<path d="M890 1194 c0 -8 5 -14 10 -14 6 0 10 -18 10 -40 0 -22 -4 -40 -10
-40 -5 0 -10 -4 -10 -10 0 -6 32 -10 75 -10 43 0 75 4 75 10 0 6 -4 10 -10 10
-5 0 -10 20 -10 44 0 24 -6 48 -12 54 -21 17 -118 14 -118 -4z m100 -54 c0
-36 -2 -40 -25 -40 -21 0 -25 5 -25 28 0 30 16 52 37 52 9 0 13 -14 13 -40z"/>
<path d="M1530 1196 c0 -10 9 -16 25 -16 23 0 25 -4 25 -40 0 -36 -2 -40 -25
-40 -14 0 -25 -4 -25 -10 0 -6 27 -10 60 -10 33 0 60 4 60 10 0 6 -9 10 -19
10 -17 0 -20 8 -23 53 l-3 52 -37 3 c-29 2 -38 0 -38 -12z"/>
<path d="M1702 1201 c-8 -4 -12 -19 -10 -32 2 -18 13 -26 41 -34 43 -12 53
-28 19 -33 -13 -2 -25 3 -28 12 -11 28 -36 19 -32 -11 3 -26 6 -28 45 -27 65
2 92 34 57 68 -8 9 -11 16 -5 16 6 0 11 11 11 25 0 23 -4 25 -42 25 -24 0 -49
-4 -56 -9z m68 -31 c0 -5 -9 -10 -19 -10 -11 0 -23 5 -26 10 -4 6 5 10 19 10
14 0 26 -4 26 -10z"/>
<path d="M2460 1196 c0 -10 9 -16 25 -16 23 0 25 -4 25 -40 0 -36 -2 -40 -25
-40 -14 0 -25 -4 -25 -10 0 -6 27 -10 60 -10 33 0 60 4 60 10 0 6 -9 10 -19
10 -17 0 -20 8 -23 53 l-3 52 -37 3 c-29 2 -38 0 -38 -12z"/>
<path d="M2622 1201 c-8 -4 -12 -19 -10 -32 2 -18 13 -26 41 -34 43 -12 53
-28 19 -33 -13 -2 -25 3 -28 12 -11 28 -36 19 -32 -11 3 -26 6 -28 45 -27 65
2 92 34 57 68 -8 9 -11 16 -5 16 6 0 11 11 11 25 0 23 -4 25 -42 25 -24 0 -49
-4 -56 -9z m68 -31 c0 -5 -9 -10 -19 -10 -11 0 -23 5 -26 10 -4 6 5 10 19 10
14 0 26 -4 26 -10z"/>
</g>
</svg>
