<?xml version="1.0" standalone="no"?>
<!DOCTYPE svg PUBLIC "-//W3C//DTD SVG 20010904//EN"
 "http://www.w3.org/TR/2001/REC-SVG-20010904/DTD/svg10.dtd">
<svg version="1.0" xmlns="http://www.w3.org/2000/svg"
 width="1869.000000pt" height="1038.000000pt" viewBox="0 0 1869.000000 1038.000000"
 preserveAspectRatio="xMidYMid meet">
<metadata>
Created by potrace 1.16, written by Peter Selinger 2001-2019
</metadata>
<g transform="translate(0.000000,1038.000000) scale(0.100000,-0.100000)"
fill="#000000" stroke="none">
<path d="M12440 10234 c0 -9 9 -18 20 -21 13 -3 20 -14 20 -29 0 -21 -3 -23
-25 -14 -19 7 -35 6 -59 -4 -83 -35 -65 -181 21 -178 16 0 52 1 81 1 52 1 72
18 32 28 -19 5 -20 14 -20 119 l0 114 -35 0 c-25 0 -35 -4 -35 -16z m29 -125
c29 -52 -32 -114 -73 -74 -34 35 -6 109 38 103 11 -2 27 -15 35 -29z"/>
<path d="M2790 10099 c0 -120 0 -121 29 -150 51 -50 137 -36 170 28 6 12 11
71 11 132 0 104 -1 111 -20 111 -19 0 -20 -7 -20 -109 0 -94 -3 -112 -21 -135
-11 -14 -30 -26 -42 -26 -53 1 -67 35 -67 164 0 99 -1 106 -20 106 -19 0 -20
-7 -20 -121z"/>
<path d="M3080 10075 c0 -138 1 -145 20 -145 19 0 20 7 20 145 0 138 -1 145
-20 145 -19 0 -20 -7 -20 -145z"/>
<path d="M5040 10075 l0 -145 95 0 c78 0 95 3 95 15 0 12 -15 15 -75 15 l-75
0 0 50 0 50 70 0 c63 0 70 2 70 20 0 18 -7 20 -70 20 l-70 0 0 45 0 45 75 0
c60 0 75 3 75 15 0 12 -17 15 -95 15 l-95 0 0 -145z"/>
<path d="M5280 10075 c0 -138 1 -145 20 -145 19 0 20 7 20 145 0 138 -1 145
-20 145 -19 0 -20 -7 -20 -145z"/>
<path d="M5905 10208 c-7 -24 -55 -251 -55 -265 0 -7 9 -13 20 -13 20 0 22 5
38 85 7 35 12 40 38 43 29 3 31 0 53 -63 20 -57 26 -65 48 -65 16 0 23 4 20
13 -3 6 -14 36 -26 64 l-21 53 30 15 c54 28 69 100 28 129 -28 20 -166 23
-173 4z m140 -31 c13 -10 16 -21 12 -39 -8 -29 -44 -48 -94 -48 l-36 0 7 38
c3 20 6 43 6 50 0 17 81 16 105 -1z"/>
<path d="M6747 10213 c-4 -3 -7 -15 -7 -25 0 -29 44 -20 48 10 3 16 -2 22 -16
22 -10 0 -22 -3 -25 -7z"/>
<path d="M12820 10195 c0 -20 -5 -25 -25 -25 -16 0 -25 -6 -25 -15 0 -9 9 -15
25 -15 24 0 25 -2 25 -65 0 -58 3 -66 25 -81 44 -29 105 0 105 50 0 23 -27 20
-40 -4 -6 -11 -20 -20 -30 -20 -18 0 -20 7 -20 60 l0 60 40 0 c29 0 40 4 40
15 0 11 -11 15 -40 15 -36 0 -40 3 -40 25 0 18 -5 25 -20 25 -15 0 -20 -7 -20
-25z"/>
<path d="M8994 10186 c-8 -21 3 -36 27 -36 15 0 20 6 17 22 -4 27 -35 37 -44
14z"/>
<path d="M9434 10186 c-8 -21 3 -36 27 -36 15 0 20 6 17 22 -4 27 -35 37 -44
14z"/>
<path d="M15604 10186 c-8 -21 3 -36 27 -36 15 0 20 6 17 22 -4 27 -35 37 -44
14z"/>
<path d="M12226 10173 c-3 -3 -30 -5 -61 -4 -43 1 -55 -2 -55 -14 0 -8 9 -15
20 -15 19 0 20 -7 20 -104 0 -97 -1 -104 -21 -109 -39 -10 -15 -32 36 -32 51
0 75 22 36 32 -16 4 -21 13 -21 39 0 32 1 33 23 23 18 -8 33 -7 60 4 71 30 71
150 -1 175 -17 6 -33 8 -36 5z m44 -65 c13 -25 13 -31 0 -55 -20 -36 -53 -41
-74 -11 -21 29 -20 62 0 83 23 23 56 15 74 -17z"/>
<path d="M12593 10170 c-29 -12 -31 -50 -3 -50 11 0 20 5 20 11 0 14 62 7 67
-7 2 -7 -13 -15 -34 -19 -52 -9 -83 -31 -83 -58 1 -51 34 -66 128 -60 52 4 72
10 72 19 0 8 -9 14 -20 14 -18 0 -20 7 -20 58 0 45 -4 63 -19 76 -23 21 -78
29 -108 16z m83 -136 c-7 -19 -65 -18 -73 1 -7 20 -1 26 39 34 34 7 46 -4 34
-35z"/>
<path d="M13048 10165 c-73 -41 -62 -149 18 -175 49 -16 114 10 114 47 0 18
-36 17 -44 -2 -12 -31 -96 -6 -96 28 0 4 32 7 71 7 l72 0 -7 32 c-12 63 -75
93 -128 63z m82 -45 c10 -19 8 -20 -40 -20 -27 0 -50 2 -50 4 0 3 7 12 16 20
22 22 61 20 74 -4z"/>
<path d="M6596 10145 c-4 -16 -13 -25 -26 -25 -11 0 -20 -7 -20 -15 0 -8 7
-15 16 -15 12 0 15 -6 10 -22 -15 -53 -18 -135 -7 -143 22 -13 81 4 81 24 0
14 -6 17 -25 13 -29 -5 -30 2 -14 78 10 46 13 50 40 50 19 0 29 5 29 15 0 10
-10 15 -26 15 -23 0 -26 3 -22 25 4 19 1 25 -12 25 -11 0 -20 -10 -24 -25z"/>
<path d="M9630 10145 c0 -20 -5 -25 -25 -25 -16 0 -25 -6 -25 -15 0 -9 9 -15
25 -15 24 0 25 -2 25 -65 0 -58 3 -66 25 -81 44 -29 105 0 105 50 0 23 -27 20
-40 -4 -6 -11 -20 -20 -30 -20 -18 0 -20 7 -20 60 l0 60 40 0 c29 0 40 4 40
15 0 11 -11 15 -40 15 -36 0 -40 3 -40 25 0 18 -5 25 -20 25 -15 0 -20 -7 -20
-25z"/>
<path d="M11890 10155 c0 -8 9 -15 20 -15 18 0 20 -7 20 -70 0 -64 2 -71 23
-79 29 -11 157 -2 157 11 0 6 -9 12 -20 15 -18 5 -20 14 -20 79 l0 74 -35 0
c-24 0 -35 -5 -35 -15 0 -8 9 -15 20 -15 16 0 20 -7 20 -34 0 -19 -5 -47 -10
-61 -8 -21 -16 -26 -38 -23 -26 3 -27 5 -30 76 l-3 72 -34 0 c-24 0 -35 -5
-35 -15z"/>
<path d="M7192 10114 c-69 -28 -96 -134 -46 -173 30 -24 48 -26 93 -10 20 7
31 18 31 30 0 17 -3 18 -20 9 -12 -6 -35 -10 -53 -8 -27 2 -33 8 -35 31 l-3
27 65 0 66 0 0 33 c0 60 -41 85 -98 61z m56 -36 c21 -21 13 -28 -35 -28 -45 0
-46 0 -28 20 20 23 45 26 63 8z"/>
<path d="M9246 10123 c-3 -3 -30 -5 -61 -4 -43 1 -55 -2 -55 -14 0 -8 9 -15
20 -15 18 0 20 -7 20 -60 0 -53 -2 -60 -20 -60 -11 0 -20 -7 -20 -15 0 -12 19
-15 110 -15 73 0 110 4 110 11 0 6 -9 13 -20 16 -17 5 -20 14 -20 68 0 38 -5
66 -12 72 -19 14 -45 22 -52 16z m28 -55 c3 -13 6 -40 6 -60 0 -38 0 -38 -40
-38 -40 0 -40 0 -40 38 0 66 59 114 74 60z"/>
<path d="M15808 10115 c-73 -41 -62 -149 18 -175 49 -16 114 10 114 47 0 18
-36 17 -44 -2 -12 -31 -96 -6 -96 28 0 4 32 7 71 7 l72 0 -7 32 c-12 63 -75
93 -128 63z m82 -45 c10 -19 8 -20 -40 -20 -27 0 -50 2 -50 4 0 3 7 12 16 20
22 22 61 20 74 -4z"/>
<path d="M5380 10024 c0 -87 1 -94 20 -94 18 0 20 7 20 61 0 69 12 99 41 99
25 0 39 -36 39 -106 0 -39 4 -54 14 -54 9 0 15 20 19 66 6 75 25 106 55 88 13
-9 18 -28 20 -83 3 -63 5 -71 22 -71 18 0 20 7 20 76 0 96 -9 114 -58 114 -21
0 -43 -5 -50 -12 -8 -8 -15 -8 -24 0 -8 6 -42 11 -76 10 l-62 -1 0 -93z"/>
<path d="M6146 10103 c-15 -55 -28 -131 -25 -153 4 -22 8 -25 44 -23 22 1 54
2 71 3 30 1 30 2 47 83 21 102 21 107 -2 107 -15 0 -21 -12 -31 -66 -13 -67
-36 -104 -65 -104 -24 0 -27 21 -10 91 8 35 15 67 15 72 0 15 -39 6 -44 -10z"/>
<path d="M6365 10096 c-3 -11 -11 -52 -20 -89 -18 -84 -19 -77 5 -77 13 0 22
9 26 28 23 104 38 132 70 132 24 0 27 -26 12 -95 -15 -65 -15 -65 7 -65 19 0
23 9 34 68 7 37 12 78 10 92 -4 24 -8 25 -72 26 -61 2 -68 0 -72 -20z"/>
<path d="M6725 10098 c-42 -182 -40 -168 -16 -168 16 0 22 13 36 78 9 42 19
85 22 95 3 12 -1 17 -16 17 -13 0 -23 -8 -26 -22z"/>
<path d="M6825 10096 c-3 -12 -11 -52 -20 -89 -18 -84 -19 -77 5 -77 13 0 22
9 26 28 24 107 40 136 73 130 18 -4 20 -33 7 -110 -8 -44 -7 -48 12 -48 16 0
21 11 31 58 13 67 34 102 61 102 29 0 32 -14 15 -85 -18 -81 -19 -75 4 -75 22
0 24 4 41 92 11 55 11 70 0 82 -14 18 -62 21 -90 6 -12 -6 -21 -7 -25 0 -3 5
-35 9 -71 8 -57 -1 -65 -3 -69 -22z"/>
<path d="M8940 10105 c0 -10 11 -15 35 -15 l35 0 0 -60 0 -60 -35 0 c-24 0
-35 -5 -35 -15 0 -12 16 -15 80 -15 64 0 80 3 80 15 0 10 -10 15 -30 15 l-30
0 0 75 0 75 -50 0 c-38 0 -50 -4 -50 -15z"/>
<path d="M9380 10105 c0 -10 11 -15 35 -15 l35 0 0 -60 0 -60 -35 0 c-24 0
-35 -5 -35 -15 0 -12 16 -15 80 -15 64 0 80 3 80 15 0 10 -10 15 -30 15 l-30
0 0 75 0 75 -50 0 c-38 0 -50 -4 -50 -15z"/>
<path d="M15320 10105 c0 -8 6 -15 13 -15 8 0 23 -31 37 -75 35 -112 61 -111
100 8 13 41 27 67 36 67 8 0 14 7 14 15 0 11 -12 15 -45 15 -33 0 -45 -4 -45
-15 0 -8 6 -15 14 -15 12 0 12 -8 -2 -50 -9 -27 -18 -50 -21 -50 -4 0 -14 21
-23 47 -15 42 -15 49 -2 56 24 13 6 27 -37 27 -28 0 -39 -4 -39 -15z"/>
<path d="M15550 10105 c0 -10 11 -15 35 -15 l35 0 0 -60 0 -60 -35 0 c-24 0
-35 -5 -35 -15 0 -12 16 -15 80 -15 64 0 80 3 80 15 0 10 -10 15 -30 15 l-30
0 0 75 0 75 -50 0 c-38 0 -50 -4 -50 -15z"/>
<path d="M15960 10106 c0 -8 6 -16 13 -19 8 -3 19 -34 25 -73 6 -37 15 -71 20
-76 14 -14 42 2 42 23 0 10 5 19 10 19 6 0 10 -9 10 -19 0 -19 25 -35 39 -26
5 2 14 38 21 80 7 41 17 75 21 75 5 0 9 7 9 15 0 11 -11 15 -39 15 -44 0 -65
-18 -31 -27 18 -5 21 -11 16 -36 -3 -16 -6 -39 -7 -51 -1 -15 -4 -11 -10 12
-7 22 -16 32 -30 32 -14 0 -21 -9 -26 -32 l-7 -33 -7 30 c-12 52 -10 75 6 75
8 0 15 7 15 15 0 11 -12 15 -45 15 -32 0 -45 -4 -45 -14z"/>
<path d="M5670 10025 c0 -12 13 -15 60 -15 47 0 60 3 60 15 0 12 -13 15 -60
15 -47 0 -60 -3 -60 -15z"/>
<path d="M9330 9790 c0 -5 7 -10 15 -10 8 0 15 5 15 10 0 6 -7 10 -15 10 -8 0
-15 -4 -15 -10z"/>
<path d="M15730 9790 c0 -5 7 -10 15 -10 8 0 15 5 15 10 0 6 -7 10 -15 10 -8
0 -15 -4 -15 -10z"/>
<path d="M2940 9775 c0 -8 7 -15 15 -15 8 0 15 7 15 15 0 8 -7 15 -15 15 -8 0
-15 -7 -15 -15z"/>
<path d="M6140 9775 c0 -8 5 -15 10 -15 6 0 10 7 10 15 0 8 -4 15 -10 15 -5 0
-10 -7 -10 -15z"/>
<path d="M12530 9745 c0 -8 7 -15 15 -15 8 0 15 7 15 15 0 8 -7 15 -15 15 -8
0 -15 -7 -15 -15z"/>
<path d="M9330 9690 c0 -5 7 -10 15 -10 8 0 15 5 15 10 0 6 -7 10 -15 10 -8 0
-15 -4 -15 -10z"/>
<path d="M15730 9690 c0 -5 7 -10 15 -10 8 0 15 5 15 10 0 6 -7 10 -15 10 -8
0 -15 -4 -15 -10z"/>
<path d="M2940 9675 c0 -8 7 -15 15 -15 8 0 15 7 15 15 0 8 -7 15 -15 15 -8 0
-15 -7 -15 -15z"/>
<path d="M6140 9675 c0 -8 5 -15 10 -15 6 0 10 7 10 15 0 8 -4 15 -10 15 -5 0
-10 -7 -10 -15z"/>
<path d="M12530 9645 c0 -8 7 -15 15 -15 8 0 15 7 15 15 0 8 -7 15 -15 15 -8
0 -15 -7 -15 -15z"/>
<path d="M9330 9590 c0 -5 7 -10 15 -10 8 0 15 5 15 10 0 6 -7 10 -15 10 -8 0
-15 -4 -15 -10z"/>
<path d="M15730 9590 c0 -5 7 -10 15 -10 8 0 15 5 15 10 0 6 -7 10 -15 10 -8
0 -15 -4 -15 -10z"/>
<path d="M2940 9575 c0 -8 7 -15 15 -15 8 0 15 7 15 15 0 8 -7 15 -15 15 -8 0
-15 -7 -15 -15z"/>
<path d="M6140 9575 c0 -8 5 -15 10 -15 6 0 10 7 10 15 0 8 -4 15 -10 15 -5 0
-10 -7 -10 -15z"/>
<path d="M12530 9545 c0 -8 7 -15 15 -15 8 0 15 7 15 15 0 8 -7 15 -15 15 -8
0 -15 -7 -15 -15z"/>
<path d="M9330 9490 c0 -5 7 -10 15 -10 8 0 15 5 15 10 0 6 -7 10 -15 10 -8 0
-15 -4 -15 -10z"/>
<path d="M15730 9490 c0 -5 7 -10 15 -10 8 0 15 5 15 10 0 6 -7 10 -15 10 -8
0 -15 -4 -15 -10z"/>
<path d="M2940 9475 c0 -8 7 -15 15 -15 8 0 15 7 15 15 0 8 -7 15 -15 15 -8 0
-15 -7 -15 -15z"/>
<path d="M6140 9475 c0 -8 5 -15 10 -15 6 0 10 7 10 15 0 8 -4 15 -10 15 -5 0
-10 -7 -10 -15z"/>
<path d="M12530 9445 c0 -8 7 -15 15 -15 8 0 15 7 15 15 0 8 -7 15 -15 15 -8
0 -15 -7 -15 -15z"/>
<path d="M9330 9390 c0 -5 7 -10 15 -10 8 0 15 5 15 10 0 6 -7 10 -15 10 -8 0
-15 -4 -15 -10z"/>
<path d="M15730 9390 c0 -5 7 -10 15 -10 8 0 15 5 15 10 0 6 -7 10 -15 10 -8
0 -15 -4 -15 -10z"/>
<path d="M2940 9375 c0 -8 7 -15 15 -15 8 0 15 7 15 15 0 8 -7 15 -15 15 -8 0
-15 -7 -15 -15z"/>
<path d="M6140 9375 c0 -8 5 -15 10 -15 6 0 10 7 10 15 0 8 -4 15 -10 15 -5 0
-10 -7 -10 -15z"/>
<path d="M12530 9345 c0 -8 7 -15 15 -15 8 0 15 7 15 15 0 8 -7 15 -15 15 -8
0 -15 -7 -15 -15z"/>
<path d="M9330 9290 c0 -5 7 -10 15 -10 8 0 15 5 15 10 0 6 -7 10 -15 10 -8 0
-15 -4 -15 -10z"/>
<path d="M15730 9290 c0 -5 7 -10 15 -10 8 0 15 5 15 10 0 6 -7 10 -15 10 -8
0 -15 -4 -15 -10z"/>
<path d="M2940 9275 c0 -8 7 -15 15 -15 8 0 15 7 15 15 0 8 -7 15 -15 15 -8 0
-15 -7 -15 -15z"/>
<path d="M6140 9275 c0 -8 5 -15 10 -15 6 0 10 7 10 15 0 8 -4 15 -10 15 -5 0
-10 -7 -10 -15z"/>
<path d="M12530 9245 c0 -8 7 -15 15 -15 8 0 15 7 15 15 0 8 -7 15 -15 15 -8
0 -15 -7 -15 -15z"/>
<path d="M9330 9195 c0 -8 7 -15 15 -15 8 0 15 7 15 15 0 8 -7 15 -15 15 -8 0
-15 -7 -15 -15z"/>
<path d="M15730 9195 c0 -8 7 -15 15 -15 8 0 15 7 15 15 0 8 -7 15 -15 15 -8
0 -15 -7 -15 -15z"/>
<path d="M2940 9175 c0 -8 7 -15 15 -15 8 0 15 7 15 15 0 8 -7 15 -15 15 -8 0
-15 -7 -15 -15z"/>
<path d="M6140 9175 c0 -8 5 -15 10 -15 6 0 10 7 10 15 0 8 -4 15 -10 15 -5 0
-10 -7 -10 -15z"/>
<path d="M12530 9145 c0 -8 7 -15 15 -15 8 0 15 7 15 15 0 8 -7 15 -15 15 -8
0 -15 -7 -15 -15z"/>
<path d="M2790 4840 l0 -4300 160 0 160 0 0 81 0 81 64 -36 c35 -20 70 -36 76
-36 22 0 3 25 -36 47 l-39 23 48 0 c35 0 47 4 47 15 0 11 -12 15 -47 15 l-48
1 43 25 c23 14 42 30 42 35 0 18 -33 8 -91 -26 l-59 -34 0 1759 0 1760 1335 0
1335 0 0 -60 c0 -33 2 -60 6 -60 3 0 48 25 100 55 53 30 97 55 100 55 2 0 4
-790 4 -1755 l0 -1755 -60 0 c-47 0 -60 -3 -60 -15 0 -12 13 -15 60 -15 l60 0
0 -80 0 -80 160 0 160 0 2 434 3 434 58 -34 c32 -19 64 -34 72 -34 23 0 7 24
-28 43 -44 24 -44 64 1 85 34 17 50 42 26 42 -9 0 -42 -16 -75 -35 l-59 -34 0
339 0 340 4530 0 4530 0 0 -60 c0 -33 2 -60 4 -60 2 0 46 25 97 55 52 30 97
55 102 55 4 0 7 -151 7 -335 l0 -335 -55 0 c-42 0 -55 -3 -55 -15 0 -13 31
-15 215 -15 l215 0 0 370 0 370 -159 0 -159 0 -104 60 -103 59 -3 -59 -3 -60
-4529 0 -4530 0 0 335 c0 184 3 335 8 335 4 0 30 -14 57 -30 56 -33 97 -41 74
-14 -7 8 -29 24 -48 34 l-36 19 33 1 c22 0 32 5 32 15 0 10 -10 15 -27 15 -27
0 -26 1 14 26 42 24 55 44 31 44 -6 0 -40 -16 -75 -35 l-63 -36 0 341 0 340
2930 0 2930 0 0 -60 c0 -33 3 -60 7 -60 3 0 40 20 82 44 42 24 86 48 99 55
l22 12 0 -336 0 -335 -55 0 c-42 0 -55 -3 -55 -15 0 -13 31 -15 215 -15 l215
0 0 365 0 365 -70 0 c-40 0 -70 4 -70 10 0 6 -7 10 -15 10 -8 0 -15 -4 -15
-10 0 -6 -29 -10 -67 -10 -64 0 -72 3 -170 60 -56 33 -107 60 -113 60 -6 0
-10 -26 -10 -60 l0 -60 -2930 0 -2930 0 0 1405 0 1406 48 -27 c26 -15 51 -31
57 -36 12 -11 45 -10 45 1 0 6 -17 20 -37 33 -50 31 -53 64 -7 86 18 8 35 21
38 29 9 23 -27 14 -86 -22 l-58 -34 0 339 0 340 4530 0 4529 0 3 -60 3 -60
103 59 102 59 0 -339 0 -339 -55 0 c-42 0 -55 -3 -55 -15 0 -13 31 -15 215
-15 l215 0 0 370 0 370 -159 0 -159 0 -104 60 -103 60 -3 -60 -3 -60 -4529 0
-4530 0 0 690 c0 380 3 690 8 690 4 0 33 -16 65 -35 32 -19 63 -33 68 -29 14
8 -8 32 -50 54 -35 19 -14 19 1387 20 1257 0 1422 2 1422 15 0 13 -164 15
-1417 15 l-1418 0 43 26 c41 24 54 44 30 44 -6 0 -40 -16 -75 -35 l-63 -36 0
306 0 305 -160 0 -160 0 0 -1725 0 -1725 -1405 0 c-773 0 -1405 2 -1405 5 0 2
18 14 40 25 39 20 49 33 32 44 -4 2 -38 -13 -75 -34 l-67 -39 0 1724 0 1725
-160 0 -160 0 0 -4300z m300 0 l0 -4280 -135 0 -135 0 0 4280 0 4280 135 0
135 0 0 -4280z m3198 -2 l2 -4278 -140 0 -140 0 0 4273 c0 2351 3 4277 7 4281
4 3 66 5 137 4 l131 -3 3 -4277z m9592 1902 l0 -340 -135 0 -135 0 0 340 0
340 135 0 135 0 0 -340z m-12623 -1146 c8 7 -11 26 -53 53 -15 9 294 12 1384
12 l1402 1 0 -690 c0 -379 -2 -690 -5 -690 -2 0 -43 23 -89 50 -123 73 -116
73 -116 1 l0 -61 -1335 0 -1335 0 0 696 0 695 69 -38 c38 -21 73 -34 78 -29z
m9423 -2399 l0 -345 -135 0 -135 0 0 345 0 345 135 0 135 0 0 -345z m3200
-1415 l0 -340 -135 0 -135 0 0 340 0 340 135 0 135 0 0 -340z"/>
<path d="M4224 4748 c-4 -6 0 -16 9 -23 24 -17 25 -190 2 -199 -29 -11 -15
-26 25 -26 29 0 40 4 40 15 0 8 -4 15 -10 15 -6 0 -10 30 -9 73 l1 72 16 -48
c20 -60 40 -59 64 3 l17 45 0 -72 c1 -43 -3 -73 -9 -73 -5 0 -10 -7 -10 -15 0
-10 11 -15 35 -15 24 0 35 5 35 15 0 8 -4 15 -10 15 -6 0 -10 38 -10 94 0 53
4 98 10 101 22 13 10 35 -19 35 -27 0 -31 -5 -47 -52 -24 -76 -26 -77 -42 -22
-7 27 -19 55 -24 62 -13 15 -54 16 -64 0z"/>
<path d="M4500 4677 c-37 -18 -40 -69 -5 -85 14 -7 36 -12 49 -12 29 0 61 -24
52 -38 -4 -7 -22 -12 -40 -12 -25 0 -38 7 -50 25 -22 33 -36 24 -36 -24 l0
-37 64 1 c72 1 96 14 96 55 0 35 -16 48 -77 63 -56 14 -63 31 -14 35 23 2 37
-2 43 -12 16 -28 38 -19 38 17 0 31 -1 32 -48 34 -26 1 -59 -3 -72 -10z"/>
<path d="M4726 4677 c-27 -9 -52 -59 -40 -79 10 -16 6 -80 -6 -92 -17 -17 -11
-62 10 -81 30 -28 108 -31 148 -6 68 43 27 111 -67 111 -22 0 -42 4 -45 8 -2
4 11 8 31 8 44 0 77 35 71 76 -4 24 -2 27 18 22 25 -7 42 12 25 29 -14 14
-108 16 -145 4z m59 -62 c0 -25 -4 -30 -24 -30 -32 0 -49 28 -31 50 7 9 23 15
34 13 16 -2 21 -10 21 -33z m48 -134 c18 -18 -16 -43 -62 -45 -51 -1 -82 24
-61 50 11 12 26 15 63 11 26 -2 53 -9 60 -16z"/>
<path d="M9330 9095 c0 -8 7 -15 15 -15 8 0 15 7 15 15 0 8 -7 15 -15 15 -8 0
-15 -7 -15 -15z"/>
<path d="M15730 9095 c0 -8 7 -15 15 -15 8 0 15 7 15 15 0 8 -7 15 -15 15 -8
0 -15 -7 -15 -15z"/>
<path d="M12530 9045 c0 -8 7 -15 15 -15 8 0 15 7 15 15 0 8 -7 15 -15 15 -8
0 -15 -7 -15 -15z"/>
<path d="M9330 8995 c0 -8 7 -15 15 -15 8 0 15 7 15 15 0 8 -7 15 -15 15 -8 0
-15 -7 -15 -15z"/>
<path d="M15730 8995 c0 -8 7 -15 15 -15 8 0 15 7 15 15 0 8 -7 15 -15 15 -8
0 -15 -7 -15 -15z"/>
<path d="M12530 8945 c0 -8 7 -15 15 -15 8 0 15 7 15 15 0 8 -7 15 -15 15 -8
0 -15 -7 -15 -15z"/>
<path d="M7204 8908 c-4 -6 0 -16 9 -23 24 -17 25 -190 2 -199 -29 -11 -15
-26 25 -26 29 0 40 4 40 15 0 8 -4 15 -10 15 -6 0 -10 30 -9 73 l1 72 16 -48
c20 -60 40 -59 64 3 l17 45 0 -72 c1 -43 -3 -73 -9 -73 -5 0 -10 -7 -10 -15 0
-10 11 -15 35 -15 24 0 35 5 35 15 0 8 -4 15 -10 15 -6 0 -10 38 -10 94 0 53
4 98 10 101 22 13 10 35 -19 35 -27 0 -31 -5 -47 -52 -24 -76 -26 -77 -42 -22
-7 27 -19 55 -24 62 -13 15 -54 16 -64 0z"/>
<path d="M7750 8904 c0 -9 9 -18 20 -21 13 -3 20 -14 20 -29 0 -21 -3 -23 -25
-14 -19 7 -35 6 -59 -4 -83 -35 -65 -181 21 -178 16 0 52 1 81 1 52 1 72 18
32 28 -19 5 -20 14 -20 119 l0 114 -35 0 c-25 0 -35 -4 -35 -16z m29 -125 c29
-52 -32 -114 -73 -74 -34 35 -6 109 38 103 11 -2 27 -15 35 -29z"/>
<path d="M8105 8911 c-11 -18 5 -31 36 -31 l29 0 0 -95 0 -95 -35 0 c-24 0
-35 -5 -35 -15 0 -12 17 -15 90 -15 73 0 90 3 90 15 0 10 -11 15 -35 15 l-34
0 -3 113 -3 112 -47 3 c-25 2 -49 -2 -53 -7z"/>
<path d="M9330 8895 c0 -8 7 -15 15 -15 8 0 15 7 15 15 0 8 -7 15 -15 15 -8 0
-15 -7 -15 -15z"/>
<path d="M15730 8895 c0 -8 7 -15 15 -15 8 0 15 7 15 15 0 8 -7 15 -15 15 -8
0 -15 -7 -15 -15z"/>
<path d="M12530 8845 c0 -8 7 -15 15 -15 8 0 15 7 15 15 0 8 -7 15 -15 15 -8
0 -15 -7 -15 -15z"/>
<path d="M7490 8837 c-73 -37 -62 -162 16 -181 54 -14 114 35 114 94 0 33 -26
75 -55 88 -33 15 -44 15 -75 -1z m72 -44 c22 -20 23 -61 1 -85 -46 -51 -107
18 -73 83 13 23 47 25 72 2z"/>
<path d="M7928 8835 c-73 -41 -62 -149 18 -175 49 -16 114 10 114 47 0 18 -36
17 -44 -2 -12 -31 -96 -6 -96 28 0 4 32 7 71 7 l72 0 -7 32 c-12 63 -75 93
-128 63z m82 -45 c10 -19 8 -20 -40 -20 -27 0 -50 2 -50 4 0 3 7 12 16 20 22
22 61 20 74 -4z"/>
<path d="M9330 8795 c0 -8 7 -15 15 -15 8 0 15 7 15 15 0 8 -7 15 -15 15 -8 0
-15 -7 -15 -15z"/>
<path d="M15730 8795 c0 -8 7 -15 15 -15 8 0 15 7 15 15 0 8 -7 15 -15 15 -8
0 -15 -7 -15 -15z"/>
<path d="M12530 8745 c0 -8 7 -15 15 -15 8 0 15 7 15 15 0 8 -7 15 -15 15 -8
0 -15 -7 -15 -15z"/>
<path d="M9330 8695 c0 -8 7 -15 15 -15 8 0 15 7 15 15 0 8 -7 15 -15 15 -8 0
-15 -7 -15 -15z"/>
<path d="M15730 8695 c0 -8 7 -15 15 -15 8 0 15 7 15 15 0 8 -7 15 -15 15 -8
0 -15 -7 -15 -15z"/>
<path d="M12530 8645 c0 -8 7 -15 15 -15 8 0 15 7 15 15 0 8 -7 15 -15 15 -8
0 -15 -7 -15 -15z"/>
<path d="M9330 8595 c0 -8 7 -15 15 -15 8 0 15 7 15 15 0 8 -7 15 -15 15 -8 0
-15 -7 -15 -15z"/>
<path d="M15730 8595 c0 -8 7 -15 15 -15 8 0 15 7 15 15 0 8 -7 15 -15 15 -8
0 -15 -7 -15 -15z"/>
<path d="M12530 8545 c0 -8 7 -15 15 -15 8 0 15 7 15 15 0 8 -7 15 -15 15 -8
0 -15 -7 -15 -15z"/>
<path d="M9330 8495 c0 -8 7 -15 15 -15 8 0 15 7 15 15 0 8 -7 15 -15 15 -8 0
-15 -7 -15 -15z"/>
<path d="M15730 8495 c0 -8 7 -15 15 -15 8 0 15 7 15 15 0 8 -7 15 -15 15 -8
0 -15 -7 -15 -15z"/>
<path d="M12530 8450 c0 -5 7 -10 15 -10 8 0 15 5 15 10 0 6 -7 10 -15 10 -8
0 -15 -4 -15 -10z"/>
<path d="M9330 8395 c0 -8 7 -15 15 -15 8 0 15 7 15 15 0 8 -7 15 -15 15 -8 0
-15 -7 -15 -15z"/>
<path d="M15730 8395 c0 -8 7 -15 15 -15 8 0 15 7 15 15 0 8 -7 15 -15 15 -8
0 -15 -7 -15 -15z"/>
<path d="M12530 8350 c0 -5 7 -10 15 -10 8 0 15 5 15 10 0 6 -7 10 -15 10 -8
0 -15 -4 -15 -10z"/>
<path d="M9330 8295 c0 -8 7 -15 15 -15 8 0 15 7 15 15 0 8 -7 15 -15 15 -8 0
-15 -7 -15 -15z"/>
<path d="M15730 8295 c0 -8 7 -15 15 -15 8 0 15 7 15 15 0 8 -7 15 -15 15 -8
0 -15 -7 -15 -15z"/>
<path d="M12530 8250 c0 -5 7 -10 15 -10 8 0 15 5 15 10 0 6 -7 10 -15 10 -8
0 -15 -4 -15 -10z"/>
<path d="M9330 8195 c0 -8 7 -15 15 -15 8 0 15 7 15 15 0 8 -7 15 -15 15 -8 0
-15 -7 -15 -15z"/>
<path d="M15730 8195 c0 -8 7 -15 15 -15 8 0 15 7 15 15 0 8 -7 15 -15 15 -8
0 -15 -7 -15 -15z"/>
<path d="M12530 8150 c0 -5 7 -10 15 -10 8 0 15 5 15 10 0 6 -7 10 -15 10 -8
0 -15 -4 -15 -10z"/>
<path d="M9330 8095 c0 -8 7 -15 15 -15 8 0 15 7 15 15 0 8 -7 15 -15 15 -8 0
-15 -7 -15 -15z"/>
<path d="M15730 8095 c0 -8 7 -15 15 -15 8 0 15 7 15 15 0 8 -7 15 -15 15 -8
0 -15 -7 -15 -15z"/>
<path d="M12530 8050 c0 -5 7 -10 15 -10 8 0 15 5 15 10 0 6 -7 10 -15 10 -8
0 -15 -4 -15 -10z"/>
<path d="M9330 7995 c0 -8 7 -15 15 -15 8 0 15 7 15 15 0 8 -7 15 -15 15 -8 0
-15 -7 -15 -15z"/>
<path d="M15730 7995 c0 -8 7 -15 15 -15 8 0 15 7 15 15 0 8 -7 15 -15 15 -8
0 -15 -7 -15 -15z"/>
<path d="M12530 7950 c0 -5 7 -10 15 -10 8 0 15 5 15 10 0 6 -7 10 -15 10 -8
0 -15 -4 -15 -10z"/>
<path d="M9330 7895 c0 -8 7 -15 15 -15 8 0 15 7 15 15 0 8 -7 15 -15 15 -8 0
-15 -7 -15 -15z"/>
<path d="M15730 7895 c0 -8 7 -15 15 -15 8 0 15 7 15 15 0 8 -7 15 -15 15 -8
0 -15 -7 -15 -15z"/>
<path d="M12530 7850 c0 -5 7 -10 15 -10 8 0 15 5 15 10 0 6 -7 10 -15 10 -8
0 -15 -4 -15 -10z"/>
<path d="M9330 7795 c0 -8 7 -15 15 -15 8 0 15 7 15 15 0 8 -7 15 -15 15 -8 0
-15 -7 -15 -15z"/>
<path d="M15730 7795 c0 -8 7 -15 15 -15 8 0 15 7 15 15 0 8 -7 15 -15 15 -8
0 -15 -7 -15 -15z"/>
<path d="M12530 7750 c0 -5 7 -10 15 -10 8 0 15 5 15 10 0 6 -7 10 -15 10 -8
0 -15 -4 -15 -10z"/>
<path d="M9330 7695 c0 -8 7 -15 15 -15 8 0 15 7 15 15 0 8 -7 15 -15 15 -8 0
-15 -7 -15 -15z"/>
<path d="M15730 7695 c0 -8 7 -15 15 -15 8 0 15 7 15 15 0 8 -7 15 -15 15 -8
0 -15 -7 -15 -15z"/>
<path d="M12530 7650 c0 -5 7 -10 15 -10 8 0 15 5 15 10 0 6 -7 10 -15 10 -8
0 -15 -4 -15 -10z"/>
<path d="M9330 7595 c0 -8 7 -15 15 -15 8 0 15 7 15 15 0 8 -7 15 -15 15 -8 0
-15 -7 -15 -15z"/>
<path d="M15730 7595 c0 -8 7 -15 15 -15 8 0 15 7 15 15 0 8 -7 15 -15 15 -8
0 -15 -7 -15 -15z"/>
<path d="M12530 7555 c0 -8 7 -15 15 -15 8 0 15 7 15 15 0 8 -7 15 -15 15 -8
0 -15 -7 -15 -15z"/>
<path d="M9330 7500 c0 -5 7 -10 15 -10 8 0 15 5 15 10 0 6 -7 10 -15 10 -8 0
-15 -4 -15 -10z"/>
<path d="M15730 7500 c0 -5 7 -10 15 -10 8 0 15 5 15 10 0 6 -7 10 -15 10 -8
0 -15 -4 -15 -10z"/>
<path d="M10404 7488 c-4 -6 0 -16 9 -23 24 -17 25 -190 2 -199 -29 -11 -15
-26 25 -26 29 0 40 4 40 15 0 8 -4 15 -10 15 -6 0 -10 30 -9 73 l1 72 16 -48
c20 -60 40 -59 64 3 l17 45 0 -72 c1 -43 -3 -73 -9 -73 -5 0 -10 -7 -10 -15 0
-10 11 -15 35 -15 24 0 35 5 35 15 0 8 -4 15 -10 15 -6 0 -10 38 -10 94 0 53
4 98 10 101 22 13 10 35 -19 35 -27 0 -31 -5 -47 -52 -24 -76 -26 -77 -42 -22
-7 27 -19 55 -24 62 -13 15 -54 16 -64 0z"/>
<path d="M10950 7484 c0 -9 9 -18 20 -21 13 -3 20 -14 20 -29 0 -21 -3 -23
-25 -14 -19 7 -35 6 -59 -4 -83 -35 -65 -181 21 -178 16 0 52 1 81 1 52 1 72
18 32 28 -19 5 -20 14 -20 119 l0 114 -35 0 c-25 0 -35 -4 -35 -16z m29 -125
c29 -52 -32 -114 -73 -74 -34 35 -6 109 38 103 11 -2 27 -15 35 -29z"/>
<path d="M11295 7491 c-11 -18 5 -31 36 -31 l29 0 0 -95 0 -95 -35 0 c-24 0
-35 -5 -35 -15 0 -12 17 -15 90 -15 73 0 90 3 90 15 0 10 -11 15 -35 15 l-34
0 -3 113 -3 112 -47 3 c-25 2 -49 -2 -53 -7z"/>
<path d="M12530 7455 c0 -8 7 -15 15 -15 8 0 15 7 15 15 0 8 -7 15 -15 15 -8
0 -15 -7 -15 -15z"/>
<path d="M10690 7417 c-73 -37 -62 -162 16 -181 54 -14 114 35 114 94 0 33
-26 75 -55 88 -33 15 -44 15 -75 -1z m72 -44 c22 -20 23 -61 1 -85 -46 -51
-107 18 -73 83 13 23 47 25 72 2z"/>
<path d="M11118 7415 c-73 -41 -62 -149 18 -175 49 -16 114 10 114 47 0 18
-36 17 -44 -2 -12 -31 -96 -6 -96 28 0 4 32 7 71 7 l72 0 -7 32 c-12 63 -75
93 -128 63z m82 -45 c10 -19 8 -20 -40 -20 -27 0 -50 2 -50 4 0 3 7 12 16 20
22 22 61 20 74 -4z"/>
<path d="M9330 7400 c0 -5 7 -10 15 -10 8 0 15 5 15 10 0 6 -7 10 -15 10 -8 0
-15 -4 -15 -10z"/>
<path d="M15730 7400 c0 -5 7 -10 15 -10 8 0 15 5 15 10 0 6 -7 10 -15 10 -8
0 -15 -4 -15 -10z"/>
<path d="M12530 7355 c0 -8 7 -15 15 -15 8 0 15 7 15 15 0 8 -7 15 -15 15 -8
0 -15 -7 -15 -15z"/>
<path d="M9330 7300 c0 -5 7 -10 15 -10 8 0 15 5 15 10 0 6 -7 10 -15 10 -8 0
-15 -4 -15 -10z"/>
<path d="M15730 7300 c0 -5 7 -10 15 -10 8 0 15 5 15 10 0 6 -7 10 -15 10 -8
0 -15 -4 -15 -10z"/>
<path d="M12530 7255 c0 -8 7 -15 15 -15 8 0 15 7 15 15 0 8 -7 15 -15 15 -8
0 -15 -7 -15 -15z"/>
<path d="M9330 7200 c0 -5 7 -10 15 -10 8 0 15 5 15 10 0 6 -7 10 -15 10 -8 0
-15 -4 -15 -10z"/>
<path d="M15730 7200 c0 -5 7 -10 15 -10 8 0 15 5 15 10 0 6 -7 10 -15 10 -8
0 -15 -4 -15 -10z"/>
<path d="M12530 7155 c0 -8 7 -15 15 -15 8 0 15 7 15 15 0 8 -7 15 -15 15 -8
0 -15 -7 -15 -15z"/>
<path d="M12530 7055 c0 -8 7 -15 15 -15 8 0 15 7 15 15 0 8 -7 15 -15 15 -8
0 -15 -7 -15 -15z"/>
<path d="M9330 7000 c0 -5 7 -10 15 -10 8 0 15 5 15 10 0 6 -7 10 -15 10 -8 0
-15 -4 -15 -10z"/>
<path d="M12530 6955 c0 -8 7 -15 15 -15 8 0 15 7 15 15 0 8 -7 15 -15 15 -8
0 -15 -7 -15 -15z"/>
<path d="M9330 6900 c0 -5 7 -10 15 -10 8 0 15 5 15 10 0 6 -7 10 -15 10 -8 0
-15 -4 -15 -10z"/>
<path d="M12530 6855 c0 -8 7 -15 15 -15 8 0 15 7 15 15 0 8 -7 15 -15 15 -8
0 -15 -7 -15 -15z"/>
<path d="M9330 6800 c0 -5 7 -10 15 -10 8 0 15 5 15 10 0 6 -7 10 -15 10 -8 0
-15 -4 -15 -10z"/>
<path d="M10520 6770 c0 -11 5 -20 10 -20 6 0 10 -38 10 -95 0 -57 -4 -95 -10
-95 -5 0 -10 -7 -10 -15 0 -11 12 -15 45 -15 44 0 60 15 30 26 -10 4 -15 20
-15 50 l0 44 40 0 40 0 0 -45 c0 -33 -4 -45 -15 -45 -8 0 -15 -7 -15 -15 0
-11 12 -15 45 -15 33 0 45 4 45 15 0 8 -4 15 -10 15 -6 0 -10 38 -10 94 0 53
4 98 10 101 6 3 10 13 10 21 0 10 -12 14 -39 14 -45 0 -62 -17 -38 -35 10 -7
17 -26 17 -44 0 -30 -2 -31 -40 -31 -38 0 -40 1 -40 31 0 18 7 37 17 44 24 18
7 35 -38 35 -32 0 -39 -3 -39 -20z"/>
<path d="M11185 6781 c-11 -18 5 -31 36 -31 l29 0 0 -95 0 -95 -35 0 c-24 0
-35 -5 -35 -15 0 -12 17 -15 90 -15 73 0 90 3 90 15 0 10 -11 15 -35 15 l-34
0 -3 113 -3 112 -47 3 c-25 2 -49 -2 -53 -7z"/>
<path d="M12530 6755 c0 -8 7 -15 15 -15 8 0 15 7 15 15 0 8 -7 15 -15 15 -8
0 -15 -7 -15 -15z"/>
<path d="M10790 6735 c0 -20 -5 -25 -25 -25 -16 0 -25 -6 -25 -15 0 -9 9 -15
25 -15 24 0 25 -2 25 -65 0 -58 3 -66 25 -81 44 -29 105 0 105 50 0 23 -27 20
-40 -4 -6 -11 -20 -20 -30 -20 -18 0 -20 7 -20 60 l0 60 40 0 c29 0 40 4 40
15 0 11 -11 15 -40 15 -36 0 -40 3 -40 25 0 18 -5 25 -20 25 -15 0 -20 -7 -20
-25z"/>
<path d="M10995 6712 c-46 -4 -67 -18 -42 -28 23 -9 25 -119 2 -128 -8 -3 -15
-10 -15 -16 0 -6 43 -10 115 -10 96 0 115 3 115 15 0 8 -7 15 -15 15 -12 0
-15 14 -15 70 0 75 -14 95 -55 80 -11 -4 -27 -5 -35 -1 -8 3 -33 5 -55 3z m45
-90 c0 -63 -4 -74 -26 -65 -18 7 -19 94 -2 111 22 22 28 12 28 -46z m70 0 c0
-63 -4 -74 -26 -65 -27 10 -12 123 16 123 6 0 10 -26 10 -58z"/>
<path d="M9330 6700 c0 -5 7 -10 15 -10 8 0 15 5 15 10 0 6 -7 10 -15 10 -8 0
-15 -4 -15 -10z"/>
<path d="M12530 6655 c0 -8 7 -15 15 -15 8 0 15 7 15 15 0 8 -7 15 -15 15 -8
0 -15 -7 -15 -15z"/>
<path d="M9330 6605 c0 -8 7 -15 15 -15 8 0 15 7 15 15 0 8 -7 15 -15 15 -8 0
-15 -7 -15 -15z"/>
<path d="M12530 6555 c0 -8 7 -15 15 -15 8 0 15 7 15 15 0 8 -7 15 -15 15 -8
0 -15 -7 -15 -15z"/>
<path d="M9330 6505 c0 -8 7 -15 15 -15 8 0 15 7 15 15 0 8 -7 15 -15 15 -8 0
-15 -7 -15 -15z"/>
<path d="M12530 6455 c0 -8 7 -15 15 -15 8 0 15 7 15 15 0 8 -7 15 -15 15 -8
0 -15 -7 -15 -15z"/>
<path d="M9330 6410 c0 -5 -20 -10 -45 -10 -33 0 -45 -4 -45 -15 0 -12 14 -15
65 -15 64 0 71 4 59 34 -7 17 -34 22 -34 6z"/>
<path d="M6500 6385 c0 -12 14 -15 65 -15 51 0 65 3 65 15 0 12 -14 15 -65 15
-51 0 -65 -3 -65 -15z"/>
<path d="M6750 6385 c0 -12 14 -15 65 -15 51 0 65 3 65 15 0 12 -14 15 -65 15
-51 0 -65 -3 -65 -15z"/>
<path d="M7000 6385 c0 -12 14 -15 65 -15 51 0 65 3 65 15 0 12 -14 15 -65 15
-51 0 -65 -3 -65 -15z"/>
<path d="M7250 6385 c0 -12 14 -15 65 -15 51 0 65 3 65 15 0 12 -14 15 -65 15
-51 0 -65 -3 -65 -15z"/>
<path d="M7500 6385 c0 -12 14 -15 65 -15 51 0 65 3 65 15 0 12 -14 15 -65 15
-51 0 -65 -3 -65 -15z"/>
<path d="M7740 6385 c0 -12 14 -15 70 -15 56 0 70 3 70 15 0 12 -14 15 -70 15
-56 0 -70 -3 -70 -15z"/>
<path d="M7990 6385 c0 -12 14 -15 70 -15 56 0 70 3 70 15 0 12 -14 15 -70 15
-56 0 -70 -3 -70 -15z"/>
<path d="M8240 6385 c0 -12 14 -15 70 -15 56 0 70 3 70 15 0 12 -14 15 -70 15
-56 0 -70 -3 -70 -15z"/>
<path d="M8490 6385 c0 -12 14 -15 70 -15 56 0 70 3 70 15 0 12 -14 15 -70 15
-56 0 -70 -3 -70 -15z"/>
<path d="M8740 6385 c0 -12 14 -15 70 -15 56 0 70 3 70 15 0 12 -14 15 -70 15
-56 0 -70 -3 -70 -15z"/>
<path d="M8990 6385 c0 -12 14 -15 65 -15 51 0 65 3 65 15 0 12 -14 15 -65 15
-51 0 -65 -3 -65 -15z"/>
<path d="M9490 6385 c0 -12 14 -15 65 -15 51 0 65 3 65 15 0 12 -14 15 -65 15
-51 0 -65 -3 -65 -15z"/>
<path d="M9740 6385 c0 -12 14 -15 65 -15 51 0 65 3 65 15 0 12 -14 15 -65 15
-51 0 -65 -3 -65 -15z"/>
<path d="M9990 6385 c0 -12 14 -15 65 -15 51 0 65 3 65 15 0 12 -14 15 -65 15
-51 0 -65 -3 -65 -15z"/>
<path d="M10240 6385 c0 -12 14 -15 65 -15 51 0 65 3 65 15 0 12 -14 15 -65
15 -51 0 -65 -3 -65 -15z"/>
<path d="M10480 6385 c0 -12 14 -15 70 -15 56 0 70 3 70 15 0 12 -14 15 -70
15 -56 0 -70 -3 -70 -15z"/>
<path d="M10730 6385 c0 -12 14 -15 70 -15 56 0 70 3 70 15 0 12 -14 15 -70
15 -56 0 -70 -3 -70 -15z"/>
<path d="M10980 6385 c0 -12 14 -15 70 -15 56 0 70 3 70 15 0 12 -14 15 -70
15 -56 0 -70 -3 -70 -15z"/>
<path d="M11230 6385 c0 -12 14 -15 70 -15 56 0 70 3 70 15 0 12 -14 15 -70
15 -56 0 -70 -3 -70 -15z"/>
<path d="M11480 6385 c0 -12 14 -15 70 -15 56 0 70 3 70 15 0 12 -14 15 -70
15 -56 0 -70 -3 -70 -15z"/>
<path d="M11730 6385 c0 -12 14 -15 65 -15 51 0 65 3 65 15 0 12 -14 15 -65
15 -51 0 -65 -3 -65 -15z"/>
<path d="M11980 6385 c0 -12 14 -15 65 -15 51 0 65 3 65 15 0 12 -14 15 -65
15 -51 0 -65 -3 -65 -15z"/>
<path d="M12230 6385 c0 -12 14 -15 65 -15 51 0 65 3 65 15 0 12 -14 15 -65
15 -51 0 -65 -3 -65 -15z"/>
<path d="M12480 6385 c0 -9 9 -15 25 -15 16 0 25 -6 25 -15 0 -8 7 -15 15 -15
8 0 15 7 15 15 0 9 9 15 25 15 16 0 25 6 25 15 0 12 -14 15 -65 15 -51 0 -65
-3 -65 -15z"/>
<path d="M12730 6385 c0 -12 14 -15 65 -15 51 0 65 3 65 15 0 12 -14 15 -65
15 -51 0 -65 -3 -65 -15z"/>
<path d="M12980 6385 c0 -12 14 -15 65 -15 51 0 65 3 65 15 0 12 -14 15 -65
15 -51 0 -65 -3 -65 -15z"/>
<path d="M13220 6385 c0 -12 14 -15 70 -15 56 0 70 3 70 15 0 12 -14 15 -70
15 -56 0 -70 -3 -70 -15z"/>
<path d="M13470 6385 c0 -12 14 -15 70 -15 56 0 70 3 70 15 0 12 -14 15 -70
15 -56 0 -70 -3 -70 -15z"/>
<path d="M13720 6385 c0 -12 14 -15 70 -15 56 0 70 3 70 15 0 12 -14 15 -70
15 -56 0 -70 -3 -70 -15z"/>
<path d="M13970 6385 c0 -12 14 -15 70 -15 56 0 70 3 70 15 0 12 -14 15 -70
15 -56 0 -70 -3 -70 -15z"/>
<path d="M14220 6385 c0 -12 14 -15 70 -15 56 0 70 3 70 15 0 12 -14 15 -70
15 -56 0 -70 -3 -70 -15z"/>
<path d="M14470 6385 c0 -12 14 -15 65 -15 51 0 65 3 65 15 0 12 -14 15 -65
15 -51 0 -65 -3 -65 -15z"/>
<path d="M14720 6385 c0 -12 14 -15 65 -15 51 0 65 3 65 15 0 12 -14 15 -65
15 -51 0 -65 -3 -65 -15z"/>
<path d="M14970 6385 c0 -12 14 -15 65 -15 51 0 65 3 65 15 0 12 -14 15 -65
15 -51 0 -65 -3 -65 -15z"/>
<path d="M15220 6385 c0 -12 14 -15 65 -15 51 0 65 3 65 15 0 12 -14 15 -65
15 -51 0 -65 -3 -65 -15z"/>
<path d="M9330 6305 c0 -8 7 -15 15 -15 8 0 15 7 15 15 0 8 -7 15 -15 15 -8 0
-15 -7 -15 -15z"/>
<path d="M15730 6305 c0 -8 7 -15 15 -15 8 0 15 7 15 15 0 8 -7 15 -15 15 -8
0 -15 -7 -15 -15z"/>
<path d="M12530 6255 c0 -8 7 -15 15 -15 8 0 15 7 15 15 0 8 -7 15 -15 15 -8
0 -15 -7 -15 -15z"/>
<path d="M9330 6205 c0 -8 7 -15 15 -15 8 0 15 7 15 15 0 8 -7 15 -15 15 -8 0
-15 -7 -15 -15z"/>
<path d="M15730 6205 c0 -8 7 -15 15 -15 8 0 15 7 15 15 0 8 -7 15 -15 15 -8
0 -15 -7 -15 -15z"/>
<path d="M12530 6155 c0 -8 7 -15 15 -15 8 0 15 7 15 15 0 8 -7 15 -15 15 -8
0 -15 -7 -15 -15z"/>
<path d="M9330 6105 c0 -8 7 -15 15 -15 8 0 15 7 15 15 0 8 -7 15 -15 15 -8 0
-15 -7 -15 -15z"/>
<path d="M15730 6105 c0 -8 7 -15 15 -15 8 0 15 7 15 15 0 8 -7 15 -15 15 -8
0 -15 -7 -15 -15z"/>
<path d="M4130 6060 c0 -11 5 -20 10 -20 6 0 10 -38 10 -95 0 -57 -4 -95 -10
-95 -5 0 -10 -7 -10 -15 0 -11 12 -15 45 -15 44 0 60 15 30 26 -10 4 -15 20
-15 50 l0 44 40 0 40 0 0 -45 c0 -33 -4 -45 -15 -45 -8 0 -15 -7 -15 -15 0
-11 12 -15 45 -15 33 0 45 4 45 15 0 8 -4 15 -10 15 -6 0 -10 38 -10 94 0 53
4 98 10 101 6 3 10 13 10 21 0 10 -12 14 -39 14 -45 0 -62 -17 -38 -35 10 -7
17 -26 17 -44 0 -30 -2 -31 -40 -31 -38 0 -40 1 -40 31 0 18 7 37 17 44 24 18
7 35 -38 35 -32 0 -39 -3 -39 -20z"/>
<path d="M4795 6071 c-11 -18 5 -31 36 -31 l29 0 0 -95 0 -95 -35 0 c-24 0
-35 -5 -35 -15 0 -12 17 -15 90 -15 73 0 90 3 90 15 0 10 -11 15 -35 15 l-34
0 -3 113 -3 112 -47 3 c-25 2 -49 -2 -53 -7z"/>
<path d="M12530 6055 c0 -8 7 -15 15 -15 8 0 15 7 15 15 0 8 -7 15 -15 15 -8
0 -15 -7 -15 -15z"/>
<path d="M4390 6025 c0 -20 -5 -25 -25 -25 -16 0 -25 -6 -25 -15 0 -9 9 -15
25 -15 24 0 25 -2 25 -65 0 -58 3 -66 25 -81 44 -29 105 0 105 50 0 23 -27 20
-40 -4 -6 -11 -20 -20 -30 -20 -18 0 -20 7 -20 60 l0 60 40 0 c29 0 40 4 40
15 0 11 -11 15 -40 15 -36 0 -40 3 -40 25 0 18 -5 25 -20 25 -15 0 -20 -7 -20
-25z"/>
<path d="M9330 6005 c0 -8 7 -15 15 -15 8 0 15 7 15 15 0 8 -7 15 -15 15 -8 0
-15 -7 -15 -15z"/>
<path d="M15730 6005 c0 -8 7 -15 15 -15 8 0 15 7 15 15 0 8 -7 15 -15 15 -8
0 -15 -7 -15 -15z"/>
<path d="M4595 6002 c-46 -4 -67 -18 -42 -28 23 -9 25 -119 2 -128 -8 -3 -15
-10 -15 -16 0 -6 43 -10 115 -10 96 0 115 3 115 15 0 8 -7 15 -15 15 -12 0
-15 14 -15 70 0 75 -14 95 -55 80 -11 -4 -27 -5 -35 -1 -8 3 -33 5 -55 3z m45
-90 c0 -63 -4 -74 -26 -65 -18 7 -19 94 -2 111 22 22 28 12 28 -46z m70 0 c0
-63 -4 -74 -26 -65 -27 10 -12 123 16 123 6 0 10 -26 10 -58z"/>
<path d="M12530 5955 c0 -8 7 -15 15 -15 8 0 15 7 15 15 0 8 -7 15 -15 15 -8
0 -15 -7 -15 -15z"/>
<path d="M9330 5905 c0 -8 7 -15 15 -15 8 0 15 7 15 15 0 8 -7 15 -15 15 -8 0
-15 -7 -15 -15z"/>
<path d="M15730 5905 c0 -8 7 -15 15 -15 8 0 15 7 15 15 0 8 -7 15 -15 15 -8
0 -15 -7 -15 -15z"/>
<path d="M12530 5860 c0 -5 7 -10 15 -10 8 0 15 5 15 10 0 6 -7 10 -15 10 -8
0 -15 -4 -15 -10z"/>
<path d="M9330 5805 c0 -8 7 -15 15 -15 8 0 15 7 15 15 0 8 -7 15 -15 15 -8 0
-15 -7 -15 -15z"/>
<path d="M15730 5805 c0 -8 7 -15 15 -15 8 0 15 7 15 15 0 8 -7 15 -15 15 -8
0 -15 -7 -15 -15z"/>
<path d="M12530 5760 c0 -5 7 -10 15 -10 8 0 15 5 15 10 0 6 -7 10 -15 10 -8
0 -15 -4 -15 -10z"/>
<path d="M9330 5705 c0 -8 7 -15 15 -15 8 0 15 7 15 15 0 8 -7 15 -15 15 -8 0
-15 -7 -15 -15z"/>
<path d="M15730 5705 c0 -8 7 -15 15 -15 8 0 15 7 15 15 0 8 -7 15 -15 15 -8
0 -15 -7 -15 -15z"/>
<path d="M12530 5660 c0 -5 7 -10 15 -10 8 0 15 5 15 10 0 6 -7 10 -15 10 -8
0 -15 -4 -15 -10z"/>
<path d="M9330 5605 c0 -8 7 -15 15 -15 8 0 15 7 15 15 0 8 -7 15 -15 15 -8 0
-15 -7 -15 -15z"/>
<path d="M15730 5605 c0 -8 7 -15 15 -15 8 0 15 7 15 15 0 8 -7 15 -15 15 -8
0 -15 -7 -15 -15z"/>
<path d="M12530 5560 c0 -5 7 -10 15 -10 8 0 15 5 15 10 0 6 -7 10 -15 10 -8
0 -15 -4 -15 -10z"/>
<path d="M9330 5505 c0 -8 7 -15 15 -15 8 0 15 7 15 15 0 8 -7 15 -15 15 -8 0
-15 -7 -15 -15z"/>
<path d="M15730 5505 c0 -8 7 -15 15 -15 8 0 15 7 15 15 0 8 -7 15 -15 15 -8
0 -15 -7 -15 -15z"/>
<path d="M12530 5460 c0 -5 7 -10 15 -10 8 0 15 5 15 10 0 6 -7 10 -15 10 -8
0 -15 -4 -15 -10z"/>
<path d="M9330 5405 c0 -8 7 -15 15 -15 8 0 15 7 15 15 0 8 -7 15 -15 15 -8 0
-15 -7 -15 -15z"/>
<path d="M15730 5405 c0 -8 7 -15 15 -15 8 0 15 7 15 15 0 8 -7 15 -15 15 -8
0 -15 -7 -15 -15z"/>
<path d="M12530 5360 c0 -5 7 -10 15 -10 8 0 15 5 15 10 0 6 -7 10 -15 10 -8
0 -15 -4 -15 -10z"/>
<path d="M9330 5305 c0 -8 7 -15 15 -15 8 0 15 7 15 15 0 8 -7 15 -15 15 -8 0
-15 -7 -15 -15z"/>
<path d="M15730 5305 c0 -8 7 -15 15 -15 8 0 15 7 15 15 0 8 -7 15 -15 15 -8
0 -15 -7 -15 -15z"/>
<path d="M12530 5260 c0 -5 7 -10 15 -10 8 0 15 5 15 10 0 6 -7 10 -15 10 -8
0 -15 -4 -15 -10z"/>
<path d="M9330 5205 c0 -8 7 -15 15 -15 8 0 15 7 15 15 0 8 -7 15 -15 15 -8 0
-15 -7 -15 -15z"/>
<path d="M15730 5205 c0 -8 7 -15 15 -15 8 0 15 7 15 15 0 8 -7 15 -15 15 -8
0 -15 -7 -15 -15z"/>
<path d="M12530 5160 c0 -5 7 -10 15 -10 8 0 15 5 15 10 0 6 -7 10 -15 10 -8
0 -15 -4 -15 -10z"/>
<path d="M9330 5105 c0 -8 7 -15 15 -15 8 0 15 7 15 15 0 8 -7 15 -15 15 -8 0
-15 -7 -15 -15z"/>
<path d="M15730 5105 c0 -8 7 -15 15 -15 8 0 15 7 15 15 0 8 -7 15 -15 15 -8
0 -15 -7 -15 -15z"/>
<path d="M12530 5060 c0 -5 7 -10 15 -10 8 0 15 5 15 10 0 6 -7 10 -15 10 -8
0 -15 -4 -15 -10z"/>
<path d="M9330 5005 c0 -8 7 -15 15 -15 8 0 15 7 15 15 0 8 -7 15 -15 15 -8 0
-15 -7 -15 -15z"/>
<path d="M15730 5005 c0 -8 7 -15 15 -15 8 0 15 7 15 15 0 8 -7 15 -15 15 -8
0 -15 -7 -15 -15z"/>
<path d="M12530 4965 c0 -8 7 -15 15 -15 8 0 15 7 15 15 0 8 -7 15 -15 15 -8
0 -15 -7 -15 -15z"/>
<path d="M9330 4905 c0 -8 7 -15 15 -15 8 0 15 7 15 15 0 8 -7 15 -15 15 -8 0
-15 -7 -15 -15z"/>
<path d="M15730 4905 c0 -8 7 -15 15 -15 8 0 15 7 15 15 0 8 -7 15 -15 15 -8
0 -15 -7 -15 -15z"/>
<path d="M12530 4865 c0 -8 7 -15 15 -15 8 0 15 7 15 15 0 8 -7 15 -15 15 -8
0 -15 -7 -15 -15z"/>
<path d="M9330 4810 c0 -5 7 -10 15 -10 8 0 15 5 15 10 0 6 -7 10 -15 10 -8 0
-15 -4 -15 -10z"/>
<path d="M15730 4810 c0 -5 7 -10 15 -10 8 0 15 5 15 10 0 6 -7 10 -15 10 -8
0 -15 -4 -15 -10z"/>
<path d="M12530 4765 c0 -8 7 -15 15 -15 8 0 15 7 15 15 0 8 -7 15 -15 15 -8
0 -15 -7 -15 -15z"/>
<path d="M9330 4710 c0 -5 7 -10 15 -10 8 0 15 5 15 10 0 6 -7 10 -15 10 -8 0
-15 -4 -15 -10z"/>
<path d="M15730 4710 c0 -5 7 -10 15 -10 8 0 15 5 15 10 0 6 -7 10 -15 10 -8
0 -15 -4 -15 -10z"/>
<path d="M12530 4665 c0 -8 7 -15 15 -15 8 0 15 7 15 15 0 8 -7 15 -15 15 -8
0 -15 -7 -15 -15z"/>
<path d="M9330 4610 c0 -5 7 -10 15 -10 8 0 15 5 15 10 0 6 -7 10 -15 10 -8 0
-15 -4 -15 -10z"/>
<path d="M15730 4610 c0 -5 7 -10 15 -10 8 0 15 5 15 10 0 6 -7 10 -15 10 -8
0 -15 -4 -15 -10z"/>
<path d="M12530 4565 c0 -8 7 -15 15 -15 8 0 15 7 15 15 0 8 -7 15 -15 15 -8
0 -15 -7 -15 -15z"/>
<path d="M9330 4510 c0 -5 7 -10 15 -10 8 0 15 5 15 10 0 6 -7 10 -15 10 -8 0
-15 -4 -15 -10z"/>
<path d="M15730 4510 c0 -5 7 -10 15 -10 8 0 15 5 15 10 0 6 -7 10 -15 10 -8
0 -15 -4 -15 -10z"/>
<path d="M12530 4465 c0 -8 7 -15 15 -15 8 0 15 7 15 15 0 8 -7 15 -15 15 -8
0 -15 -7 -15 -15z"/>
<path d="M9330 4410 c0 -5 7 -10 15 -10 8 0 15 5 15 10 0 6 -7 10 -15 10 -8 0
-15 -4 -15 -10z"/>
<path d="M15730 4410 c0 -5 7 -10 15 -10 8 0 15 5 15 10 0 6 -7 10 -15 10 -8
0 -15 -4 -15 -10z"/>
<path d="M12530 4365 c0 -8 7 -15 15 -15 8 0 15 7 15 15 0 8 -7 15 -15 15 -8
0 -15 -7 -15 -15z"/>
<path d="M9330 4310 c0 -5 7 -10 15 -10 8 0 15 5 15 10 0 6 -7 10 -15 10 -8 0
-15 -4 -15 -10z"/>
<path d="M15730 4310 c0 -5 7 -10 15 -10 8 0 15 5 15 10 0 6 -7 10 -15 10 -8
0 -15 -4 -15 -10z"/>
<path d="M12530 4265 c0 -8 7 -15 15 -15 8 0 15 7 15 15 0 8 -7 15 -15 15 -8
0 -15 -7 -15 -15z"/>
<path d="M9330 4210 c0 -5 7 -10 15 -10 8 0 15 5 15 10 0 6 -7 10 -15 10 -8 0
-15 -4 -15 -10z"/>
<path d="M15730 4210 c0 -5 7 -10 15 -10 8 0 15 5 15 10 0 6 -7 10 -15 10 -8
0 -15 -4 -15 -10z"/>
<path d="M12530 4165 c0 -8 7 -15 15 -15 8 0 15 7 15 15 0 8 -7 15 -15 15 -8
0 -15 -7 -15 -15z"/>
<path d="M9330 4110 c0 -5 7 -10 15 -10 8 0 15 5 15 10 0 6 -7 10 -15 10 -8 0
-15 -4 -15 -10z"/>
<path d="M15730 4110 c0 -5 7 -10 15 -10 8 0 15 5 15 10 0 6 -7 10 -15 10 -8
0 -15 -4 -15 -10z"/>
<path d="M12530 4065 c0 -8 7 -15 15 -15 8 0 15 7 15 15 0 8 -7 15 -15 15 -8
0 -15 -7 -15 -15z"/>
<path d="M8354 4038 c-4 -6 0 -16 9 -23 24 -17 25 -190 2 -199 -29 -11 -15
-26 25 -26 29 0 40 4 40 15 0 8 -4 15 -10 15 -6 0 -10 30 -9 73 l1 72 16 -48
c20 -60 40 -59 64 3 l17 45 0 -72 c1 -43 -3 -73 -9 -73 -5 0 -10 -7 -10 -15 0
-10 11 -15 35 -15 24 0 35 5 35 15 0 8 -4 15 -10 15 -6 0 -10 38 -10 94 0 53
4 98 10 101 22 13 10 35 -19 35 -27 0 -31 -5 -47 -52 -24 -76 -26 -77 -42 -22
-7 27 -19 55 -24 62 -13 15 -54 16 -64 0z"/>
<path d="M9264 4038 c-4 -6 0 -16 9 -23 24 -17 25 -190 2 -199 -27 -10 -16
-26 19 -26 45 0 66 9 66 27 0 10 -7 14 -20 10 -19 -5 -20 -1 -18 66 0 40 3 57
5 40 2 -18 8 -33 14 -33 5 0 9 -7 9 -16 0 -32 35 -8 52 36 l17 45 0 -72 c1
-43 -3 -73 -9 -73 -5 0 -10 -7 -10 -15 0 -10 11 -15 35 -15 24 0 35 5 35 15 0
8 -4 15 -10 15 -6 0 -10 38 -10 94 0 53 4 98 10 101 22 13 10 35 -19 35 -27 0
-31 -5 -46 -52 -10 -29 -21 -57 -25 -61 -9 -10 -22 51 -14 64 8 14 -37 48 -63
49 -12 0 -25 -5 -29 -12z"/>
<path d="M9800 4034 c0 -9 9 -18 20 -21 13 -3 20 -14 20 -29 0 -21 -3 -23 -25
-14 -19 7 -35 6 -59 -4 -83 -35 -65 -181 21 -178 16 0 52 1 81 1 52 1 72 18
32 28 -19 5 -20 14 -20 119 l0 114 -35 0 c-25 0 -35 -4 -35 -16z m29 -125 c29
-52 -32 -114 -73 -74 -34 35 -6 109 38 103 11 -2 27 -15 35 -29z"/>
<path d="M10155 4041 c-11 -18 5 -31 36 -31 l29 0 0 -95 0 -95 -35 0 c-24 0
-35 -5 -35 -15 0 -12 17 -15 90 -15 73 0 90 3 90 15 0 10 -11 15 -35 15 l-34
0 -3 113 -3 112 -47 3 c-25 2 -49 -2 -53 -7z"/>
<path d="M15730 4010 c0 -5 7 -10 15 -10 8 0 15 5 15 10 0 6 -7 10 -15 10 -8
0 -15 -4 -15 -10z"/>
<path d="M8630 3967 c-37 -18 -40 -69 -5 -85 14 -7 36 -12 49 -12 29 0 61 -24
52 -38 -4 -7 -22 -12 -40 -12 -25 0 -38 7 -50 25 -22 33 -36 24 -36 -24 l0
-37 64 1 c72 1 96 14 96 55 0 35 -16 48 -77 63 -56 14 -63 31 -14 35 23 2 37
-2 43 -12 16 -28 38 -19 38 17 0 31 -1 32 -48 34 -26 1 -59 -3 -72 -10z"/>
<path d="M8846 3967 c-27 -9 -52 -59 -40 -79 10 -16 6 -80 -6 -92 -17 -17 -11
-62 10 -81 30 -28 108 -31 148 -6 68 43 27 111 -67 111 -22 0 -42 4 -45 8 -2
4 11 8 31 8 44 0 77 35 71 76 -4 24 -2 27 18 22 25 -7 42 12 25 29 -14 14
-108 16 -145 4z m59 -62 c0 -25 -4 -30 -24 -30 -32 0 -49 28 -31 50 7 9 23 15
34 13 16 -2 21 -10 21 -33z m48 -134 c18 -18 -16 -43 -62 -45 -51 -1 -82 24
-61 50 11 12 26 15 63 11 26 -2 53 -9 60 -16z"/>
<path d="M9540 3967 c-73 -37 -62 -162 16 -181 54 -14 114 35 114 94 0 33 -26
75 -55 88 -33 15 -44 15 -75 -1z m72 -44 c22 -20 23 -61 1 -85 -46 -51 -107
18 -73 83 13 23 47 25 72 2z"/>
<path d="M9978 3965 c-73 -41 -62 -149 18 -175 49 -16 114 10 114 47 0 18 -36
17 -44 -2 -12 -31 -96 -6 -96 28 0 4 32 7 71 7 l72 0 -7 32 c-12 63 -75 93
-128 63z m82 -45 c10 -19 8 -20 -40 -20 -27 0 -50 2 -50 4 0 3 7 12 16 20 22
22 61 20 74 -4z"/>
<path d="M12530 3965 c0 -8 7 -15 15 -15 8 0 15 7 15 15 0 8 -7 15 -15 15 -8
0 -15 -7 -15 -15z"/>
<path d="M15730 3915 c0 -8 7 -15 15 -15 8 0 15 7 15 15 0 8 -7 15 -15 15 -8
0 -15 -7 -15 -15z"/>
<path d="M12530 3865 c0 -8 7 -15 15 -15 8 0 15 7 15 15 0 8 -7 15 -15 15 -8
0 -15 -7 -15 -15z"/>
<path d="M9034 3825 c-7 -18 3 -35 22 -35 18 0 18 -21 -1 -46 -17 -22 -19 -34
-5 -34 13 0 40 54 40 83 0 40 -44 65 -56 32z"/>
<path d="M15730 3815 c0 -8 7 -15 15 -15 8 0 15 7 15 15 0 8 -7 15 -15 15 -8
0 -15 -7 -15 -15z"/>
<path d="M12530 3765 c0 -8 7 -15 15 -15 8 0 15 7 15 15 0 8 -7 15 -15 15 -8
0 -15 -7 -15 -15z"/>
<path d="M9330 3715 c0 -8 7 -15 15 -15 8 0 15 7 15 15 0 8 -7 15 -15 15 -8 0
-15 -7 -15 -15z"/>
<path d="M15730 3715 c0 -8 7 -15 15 -15 8 0 15 7 15 15 0 8 -7 15 -15 15 -8
0 -15 -7 -15 -15z"/>
<path d="M12530 3665 c0 -8 7 -15 15 -15 8 0 15 7 15 15 0 8 -7 15 -15 15 -8
0 -15 -7 -15 -15z"/>
<path d="M9330 3615 c0 -8 7 -15 15 -15 8 0 15 7 15 15 0 8 -7 15 -15 15 -8 0
-15 -7 -15 -15z"/>
<path d="M15730 3615 c0 -8 7 -15 15 -15 8 0 15 7 15 15 0 8 -7 15 -15 15 -8
0 -15 -7 -15 -15z"/>
<path d="M9330 3515 c0 -8 7 -15 15 -15 8 0 15 7 15 15 0 8 -7 15 -15 15 -8 0
-15 -7 -15 -15z"/>
<path d="M15730 3515 c0 -8 7 -15 15 -15 8 0 15 7 15 15 0 8 -7 15 -15 15 -8
0 -15 -7 -15 -15z"/>
<path d="M9330 3415 c0 -8 7 -15 15 -15 8 0 15 7 15 15 0 8 -7 15 -15 15 -8 0
-15 -7 -15 -15z"/>
<path d="M15730 3415 c0 -8 7 -15 15 -15 8 0 15 7 15 15 0 8 -7 15 -15 15 -8
0 -15 -7 -15 -15z"/>
<path d="M9330 3315 c0 -8 7 -15 15 -15 8 0 15 7 15 15 0 8 -7 15 -15 15 -8 0
-15 -7 -15 -15z"/>
<path d="M15730 3315 c0 -8 7 -15 15 -15 8 0 15 7 15 15 0 8 -7 15 -15 15 -8
0 -15 -7 -15 -15z"/>
<path d="M8804 3238 c-4 -6 0 -16 9 -23 24 -17 25 -190 2 -199 -29 -11 -15
-26 25 -26 29 0 40 4 40 15 0 8 -4 15 -10 15 -6 0 -10 30 -9 73 l1 72 16 -48
c20 -60 40 -59 64 3 l17 45 0 -72 c1 -43 -3 -73 -9 -73 -5 0 -10 -7 -10 -15 0
-10 11 -15 35 -15 24 0 35 5 35 15 0 8 -4 15 -10 15 -6 0 -10 38 -10 94 0 53
4 98 10 101 22 13 10 35 -19 35 -27 0 -31 -5 -47 -52 -24 -76 -26 -77 -42 -22
-7 27 -19 55 -24 62 -13 15 -54 16 -64 0z"/>
<path d="M9343 3235 c-22 -25 -15 -37 17 -30 27 6 30 4 30 -19 0 -23 -2 -25
-25 -16 -19 7 -35 6 -59 -4 -83 -35 -65 -181 21 -178 16 0 52 1 81 1 52 1 72
18 32 28 -19 5 -20 14 -20 119 l0 114 -32 0 c-18 -1 -39 -7 -45 -15z m33 -120
c22 -33 7 -76 -29 -86 -50 -13 -78 51 -40 93 22 25 50 23 69 -7z"/>
<path d="M9330 3115 c0 -8 7 -15 15 -15 8 0 15 7 15 15 0 8 -7 15 -15 15 -8 0
-15 -7 -15 -15z"/>
<path d="M9695 3241 c-11 -18 5 -31 36 -31 l29 0 0 -95 0 -95 -35 0 c-24 0
-35 -5 -35 -15 0 -12 17 -15 90 -15 73 0 90 3 90 15 0 10 -11 15 -35 15 l-34
0 -3 113 -3 112 -47 3 c-25 2 -49 -2 -53 -7z"/>
<path d="M15730 3215 c0 -8 7 -15 15 -15 8 0 15 7 15 15 0 8 -7 15 -15 15 -8
0 -15 -7 -15 -15z"/>
<path d="M9090 3167 c-73 -37 -62 -162 16 -181 54 -14 114 35 114 94 0 33 -26
75 -55 88 -33 15 -44 15 -75 -1z m72 -44 c22 -20 23 -61 1 -85 -46 -51 -107
18 -73 83 13 23 47 25 72 2z"/>
<path d="M9528 3165 c-73 -41 -62 -149 18 -175 49 -16 114 10 114 47 0 18 -36
17 -44 -2 -12 -31 -96 -6 -96 28 0 4 32 7 71 7 l72 0 -7 32 c-12 63 -75 93
-128 63z m82 -45 c10 -19 8 -20 -40 -20 -27 0 -50 2 -50 4 0 3 7 12 16 20 22
22 61 20 74 -4z"/>
<path d="M15730 3115 c0 -8 7 -15 15 -15 8 0 15 7 15 15 0 8 -7 15 -15 15 -8
0 -15 -7 -15 -15z"/>
<path d="M15730 3015 c0 -8 7 -15 15 -15 8 0 15 7 15 15 0 8 -7 15 -15 15 -8
0 -15 -7 -15 -15z"/>
<path d="M9330 2915 c0 -8 7 -15 15 -15 8 0 15 7 15 15 0 8 -7 15 -15 15 -8 0
-15 -7 -15 -15z"/>
<path d="M15730 2915 c0 -8 7 -15 15 -15 8 0 15 7 15 15 0 8 -7 15 -15 15 -8
0 -15 -7 -15 -15z"/>
<path d="M6540 2845 c0 -12 14 -15 65 -15 51 0 65 3 65 15 0 12 -14 15 -65 15
-51 0 -65 -3 -65 -15z"/>
<path d="M6790 2845 c0 -12 14 -15 65 -15 51 0 65 3 65 15 0 12 -14 15 -65 15
-51 0 -65 -3 -65 -15z"/>
<path d="M7040 2845 c0 -12 14 -15 65 -15 51 0 65 3 65 15 0 12 -14 15 -65 15
-51 0 -65 -3 -65 -15z"/>
<path d="M7290 2845 c0 -12 14 -15 65 -15 51 0 65 3 65 15 0 12 -14 15 -65 15
-51 0 -65 -3 -65 -15z"/>
<path d="M7540 2845 c0 -12 14 -15 65 -15 51 0 65 3 65 15 0 12 -14 15 -65 15
-51 0 -65 -3 -65 -15z"/>
<path d="M7790 2845 c0 -12 14 -15 65 -15 51 0 65 3 65 15 0 12 -14 15 -65 15
-51 0 -65 -3 -65 -15z"/>
<path d="M8030 2845 c0 -12 14 -15 70 -15 56 0 70 3 70 15 0 12 -14 15 -70 15
-56 0 -70 -3 -70 -15z"/>
<path d="M8280 2845 c0 -12 14 -15 70 -15 56 0 70 3 70 15 0 12 -14 15 -70 15
-56 0 -70 -3 -70 -15z"/>
<path d="M8530 2845 c0 -12 14 -15 70 -15 56 0 70 3 70 15 0 12 -14 15 -70 15
-56 0 -70 -3 -70 -15z"/>
<path d="M8780 2845 c0 -12 14 -15 70 -15 56 0 70 3 70 15 0 12 -14 15 -70 15
-56 0 -70 -3 -70 -15z"/>
<path d="M9030 2845 c0 -12 14 -15 70 -15 56 0 70 3 70 15 0 12 -14 15 -70 15
-56 0 -70 -3 -70 -15z"/>
<path d="M9280 2845 c0 -9 9 -15 25 -15 16 0 25 -6 25 -15 0 -8 7 -15 15 -15
8 0 15 7 15 15 0 9 9 15 25 15 16 0 25 6 25 15 0 12 -14 15 -65 15 -51 0 -65
-3 -65 -15z"/>
<path d="M9530 2845 c0 -12 14 -15 65 -15 51 0 65 3 65 15 0 12 -14 15 -65 15
-51 0 -65 -3 -65 -15z"/>
<path d="M9780 2845 c0 -12 14 -15 65 -15 51 0 65 3 65 15 0 12 -14 15 -65 15
-51 0 -65 -3 -65 -15z"/>
<path d="M10030 2845 c0 -12 14 -15 65 -15 51 0 65 3 65 15 0 12 -14 15 -65
15 -51 0 -65 -3 -65 -15z"/>
<path d="M10280 2845 c0 -12 14 -15 65 -15 51 0 65 3 65 15 0 12 -14 15 -65
15 -51 0 -65 -3 -65 -15z"/>
<path d="M10530 2845 c0 -12 14 -15 65 -15 51 0 65 3 65 15 0 12 -14 15 -65
15 -51 0 -65 -3 -65 -15z"/>
<path d="M10770 2845 c0 -12 14 -15 70 -15 56 0 70 3 70 15 0 12 -14 15 -70
15 -56 0 -70 -3 -70 -15z"/>
<path d="M11020 2845 c0 -12 14 -15 70 -15 56 0 70 3 70 15 0 12 -14 15 -70
15 -56 0 -70 -3 -70 -15z"/>
<path d="M11270 2845 c0 -12 14 -15 70 -15 56 0 70 3 70 15 0 12 -14 15 -70
15 -56 0 -70 -3 -70 -15z"/>
<path d="M11520 2845 c0 -12 14 -15 70 -15 56 0 70 3 70 15 0 12 -14 15 -70
15 -56 0 -70 -3 -70 -15z"/>
<path d="M11770 2845 c0 -12 14 -15 65 -15 51 0 65 3 65 15 0 12 -14 15 -65
15 -51 0 -65 -3 -65 -15z"/>
<path d="M12020 2845 c0 -12 14 -15 65 -15 51 0 65 3 65 15 0 12 -14 15 -65
15 -51 0 -65 -3 -65 -15z"/>
<path d="M15730 2815 c0 -8 7 -15 15 -15 8 0 15 7 15 15 0 8 -7 15 -15 15 -8
0 -15 -7 -15 -15z"/>
<path d="M12530 2770 c0 -5 7 -10 15 -10 8 0 15 5 15 10 0 6 -7 10 -15 10 -8
0 -15 -4 -15 -10z"/>
<path d="M9330 2715 c0 -8 7 -15 15 -15 8 0 15 7 15 15 0 8 -7 15 -15 15 -8 0
-15 -7 -15 -15z"/>
<path d="M15730 2715 c0 -8 7 -15 15 -15 8 0 15 7 15 15 0 8 -7 15 -15 15 -8
0 -15 -7 -15 -15z"/>
<path d="M12530 2670 c0 -5 7 -10 15 -10 8 0 15 5 15 10 0 6 -7 10 -15 10 -8
0 -15 -4 -15 -10z"/>
<path d="M9330 2615 c0 -8 7 -15 15 -15 8 0 15 7 15 15 0 8 -7 15 -15 15 -8 0
-15 -7 -15 -15z"/>
<path d="M15730 2615 c0 -8 7 -15 15 -15 8 0 15 7 15 15 0 8 -7 15 -15 15 -8
0 -15 -7 -15 -15z"/>
<path d="M12530 2570 c0 -5 7 -10 15 -10 8 0 15 5 15 10 0 6 -7 10 -15 10 -8
0 -15 -4 -15 -10z"/>
<path d="M10404 2528 c-4 -6 0 -16 9 -23 24 -17 25 -190 2 -199 -29 -11 -15
-26 25 -26 29 0 40 4 40 15 0 8 -4 15 -10 15 -6 0 -10 30 -9 73 l1 72 16 -48
c20 -60 40 -59 64 3 l17 45 0 -72 c1 -43 -3 -73 -9 -73 -5 0 -10 -7 -10 -15 0
-10 11 -15 35 -15 24 0 35 5 35 15 0 8 -4 15 -10 15 -6 0 -10 38 -10 94 0 53
4 98 10 101 22 13 10 35 -19 35 -27 0 -31 -5 -47 -52 -24 -76 -26 -77 -42 -22
-7 27 -19 55 -24 62 -13 15 -54 16 -64 0z"/>
<path d="M10950 2524 c0 -9 9 -18 20 -21 13 -3 20 -14 20 -29 0 -21 -3 -23
-25 -14 -19 7 -35 6 -59 -4 -83 -35 -65 -181 21 -178 16 0 52 1 81 1 52 1 72
18 32 28 -19 5 -20 14 -20 119 l0 114 -35 0 c-25 0 -35 -4 -35 -16z m29 -125
c29 -52 -32 -114 -73 -74 -34 35 -6 109 38 103 11 -2 27 -15 35 -29z"/>
<path d="M11295 2531 c-11 -18 5 -31 36 -31 l29 0 0 -95 0 -95 -35 0 c-24 0
-35 -5 -35 -15 0 -12 17 -15 90 -15 73 0 90 3 90 15 0 10 -11 15 -35 15 l-34
0 -3 113 -3 112 -47 3 c-25 2 -49 -2 -53 -7z"/>
<path d="M9330 2515 c0 -8 7 -15 15 -15 8 0 15 7 15 15 0 8 -7 15 -15 15 -8 0
-15 -7 -15 -15z"/>
<path d="M15730 2515 c0 -8 7 -15 15 -15 8 0 15 7 15 15 0 8 -7 15 -15 15 -8
0 -15 -7 -15 -15z"/>
<path d="M12530 2470 c0 -5 7 -10 15 -10 8 0 15 5 15 10 0 6 -7 10 -15 10 -8
0 -15 -4 -15 -10z"/>
<path d="M10690 2457 c-73 -37 -62 -162 16 -181 54 -14 114 35 114 94 0 33
-26 75 -55 88 -33 15 -44 15 -75 -1z m72 -44 c22 -20 23 -61 1 -85 -46 -51
-107 18 -73 83 13 23 47 25 72 2z"/>
<path d="M11118 2455 c-73 -41 -62 -149 18 -175 49 -16 114 10 114 47 0 18
-36 17 -44 -2 -12 -31 -96 -6 -96 28 0 4 32 7 71 7 l72 0 -7 32 c-12 63 -75
93 -128 63z m82 -45 c10 -19 8 -20 -40 -20 -27 0 -50 2 -50 4 0 3 7 12 16 20
22 22 61 20 74 -4z"/>
<path d="M9330 2415 c0 -8 7 -15 15 -15 8 0 15 7 15 15 0 8 -7 15 -15 15 -8 0
-15 -7 -15 -15z"/>
<path d="M15730 2415 c0 -8 7 -15 15 -15 8 0 15 7 15 15 0 8 -7 15 -15 15 -8
0 -15 -7 -15 -15z"/>
<path d="M12530 2370 c0 -5 7 -10 15 -10 8 0 15 5 15 10 0 6 -7 10 -15 10 -8
0 -15 -4 -15 -10z"/>
<path d="M9330 2315 c0 -8 7 -15 15 -15 8 0 15 7 15 15 0 8 -7 15 -15 15 -8 0
-15 -7 -15 -15z"/>
<path d="M15730 2315 c0 -8 7 -15 15 -15 8 0 15 7 15 15 0 8 -7 15 -15 15 -8
0 -15 -7 -15 -15z"/>
<path d="M12530 2275 c0 -8 7 -15 15 -15 8 0 15 7 15 15 0 8 -7 15 -15 15 -8
0 -15 -7 -15 -15z"/>
<path d="M9330 2220 c0 -5 7 -10 15 -10 8 0 15 5 15 10 0 6 -7 10 -15 10 -8 0
-15 -4 -15 -10z"/>
<path d="M15730 2220 c0 -5 7 -10 15 -10 8 0 15 5 15 10 0 6 -7 10 -15 10 -8
0 -15 -4 -15 -10z"/>
<path d="M12530 2175 c0 -8 7 -15 15 -15 8 0 15 7 15 15 0 8 -7 15 -15 15 -8
0 -15 -7 -15 -15z"/>
<path d="M12530 2075 c0 -8 7 -15 15 -15 8 0 15 7 15 15 0 8 -7 15 -15 15 -8
0 -15 -7 -15 -15z"/>
<path d="M9330 2020 c0 -5 7 -10 15 -10 8 0 15 5 15 10 0 6 -7 10 -15 10 -8 0
-15 -4 -15 -10z"/>
<path d="M12530 1975 c0 -8 7 -15 15 -15 8 0 15 7 15 15 0 8 -7 15 -15 15 -8
0 -15 -7 -15 -15z"/>
<path d="M9330 1920 c0 -5 7 -10 15 -10 8 0 15 5 15 10 0 6 -7 10 -15 10 -8 0
-15 -4 -15 -10z"/>
<path d="M12530 1875 c0 -8 7 -15 15 -15 8 0 15 7 15 15 0 8 -7 15 -15 15 -8
0 -15 -7 -15 -15z"/>
<path d="M9330 1820 c0 -5 7 -10 15 -10 8 0 15 5 15 10 0 6 -7 10 -15 10 -8 0
-15 -4 -15 -10z"/>
<path d="M10520 1810 c0 -11 5 -20 10 -20 6 0 10 -38 10 -95 0 -57 -4 -95 -10
-95 -5 0 -10 -7 -10 -15 0 -11 12 -15 45 -15 44 0 60 15 30 26 -10 4 -15 20
-15 50 l0 44 40 0 40 0 0 -45 c0 -33 -4 -45 -15 -45 -8 0 -15 -7 -15 -15 0
-11 12 -15 45 -15 33 0 45 4 45 15 0 8 -4 15 -10 15 -6 0 -10 38 -10 94 0 53
4 98 10 101 6 3 10 13 10 21 0 10 -12 14 -39 14 -45 0 -62 -17 -38 -35 10 -7
17 -26 17 -44 0 -30 -2 -31 -40 -31 -38 0 -40 1 -40 31 0 18 7 37 17 44 24 18
7 35 -38 35 -32 0 -39 -3 -39 -20z"/>
<path d="M11185 1821 c-11 -18 5 -31 36 -31 l29 0 0 -95 0 -95 -35 0 c-24 0
-35 -5 -35 -15 0 -12 17 -15 90 -15 73 0 90 3 90 15 0 10 -11 15 -35 15 l-34
0 -3 113 -3 112 -47 3 c-25 2 -49 -2 -53 -7z"/>
<path d="M10790 1775 c0 -20 -5 -25 -25 -25 -16 0 -25 -6 -25 -15 0 -9 9 -15
25 -15 24 0 25 -2 25 -65 0 -58 3 -66 25 -81 44 -29 105 0 105 50 0 23 -27 20
-40 -4 -6 -11 -20 -20 -30 -20 -18 0 -20 7 -20 60 l0 60 40 0 c29 0 40 4 40
15 0 11 -11 15 -40 15 -36 0 -40 3 -40 25 0 18 -5 25 -20 25 -15 0 -20 -7 -20
-25z"/>
<path d="M12530 1775 c0 -8 7 -15 15 -15 8 0 15 7 15 15 0 8 -7 15 -15 15 -8
0 -15 -7 -15 -15z"/>
<path d="M10995 1752 c-46 -4 -67 -18 -42 -28 23 -9 25 -119 2 -128 -8 -3 -15
-10 -15 -16 0 -6 43 -10 115 -10 96 0 115 3 115 15 0 8 -7 15 -15 15 -12 0
-15 14 -15 70 0 75 -14 95 -55 80 -11 -4 -27 -5 -35 -1 -8 3 -33 5 -55 3z m45
-90 c0 -63 -4 -74 -26 -65 -18 7 -19 94 -2 111 22 22 28 12 28 -46z m70 0 c0
-63 -4 -74 -26 -65 -27 10 -12 123 16 123 6 0 10 -26 10 -58z"/>
<path d="M9330 1720 c0 -5 7 -10 15 -10 8 0 15 5 15 10 0 6 -7 10 -15 10 -8 0
-15 -4 -15 -10z"/>
<path d="M12530 1675 c0 -8 7 -15 15 -15 8 0 15 7 15 15 0 8 -7 15 -15 15 -8
0 -15 -7 -15 -15z"/>
<path d="M9330 1620 c0 -5 7 -10 15 -10 8 0 15 5 15 10 0 6 -7 10 -15 10 -8 0
-15 -4 -15 -10z"/>
<path d="M12530 1575 c0 -8 7 -15 15 -15 8 0 15 7 15 15 0 8 -7 15 -15 15 -8
0 -15 -7 -15 -15z"/>
<path d="M9330 1520 c0 -5 7 -10 15 -10 8 0 15 5 15 10 0 6 -7 10 -15 10 -8 0
-15 -4 -15 -10z"/>
<path d="M12530 1475 c0 -8 7 -15 15 -15 8 0 15 7 15 15 0 8 -7 15 -15 15 -8
0 -15 -7 -15 -15z"/>
<path d="M6500 1425 c0 -12 14 -15 65 -15 51 0 65 3 65 15 0 12 -14 15 -65 15
-51 0 -65 -3 -65 -15z"/>
<path d="M6750 1425 c0 -12 14 -15 65 -15 51 0 65 3 65 15 0 12 -14 15 -65 15
-51 0 -65 -3 -65 -15z"/>
<path d="M7000 1425 c0 -12 14 -15 65 -15 51 0 65 3 65 15 0 12 -14 15 -65 15
-51 0 -65 -3 -65 -15z"/>
<path d="M7250 1425 c0 -12 14 -15 65 -15 51 0 65 3 65 15 0 12 -14 15 -65 15
-51 0 -65 -3 -65 -15z"/>
<path d="M7500 1425 c0 -12 14 -15 65 -15 51 0 65 3 65 15 0 12 -14 15 -65 15
-51 0 -65 -3 -65 -15z"/>
<path d="M7740 1425 c0 -12 14 -15 70 -15 56 0 70 3 70 15 0 12 -14 15 -70 15
-56 0 -70 -3 -70 -15z"/>
<path d="M7990 1425 c0 -12 14 -15 70 -15 56 0 70 3 70 15 0 12 -14 15 -70 15
-56 0 -70 -3 -70 -15z"/>
<path d="M8240 1425 c0 -12 14 -15 70 -15 56 0 70 3 70 15 0 12 -14 15 -70 15
-56 0 -70 -3 -70 -15z"/>
<path d="M8490 1425 c0 -12 14 -15 70 -15 56 0 70 3 70 15 0 12 -14 15 -70 15
-56 0 -70 -3 -70 -15z"/>
<path d="M8740 1425 c0 -12 14 -15 70 -15 56 0 70 3 70 15 0 12 -14 15 -70 15
-56 0 -70 -3 -70 -15z"/>
<path d="M8990 1425 c0 -12 14 -15 65 -15 51 0 65 3 65 15 0 12 -14 15 -65 15
-51 0 -65 -3 -65 -15z"/>
<path d="M9240 1425 c0 -12 14 -15 65 -15 51 0 65 3 65 15 0 12 -14 15 -65 15
-51 0 -65 -3 -65 -15z"/>
<path d="M9490 1425 c0 -12 14 -15 65 -15 51 0 65 3 65 15 0 12 -14 15 -65 15
-51 0 -65 -3 -65 -15z"/>
<path d="M9740 1425 c0 -12 14 -15 65 -15 51 0 65 3 65 15 0 12 -14 15 -65 15
-51 0 -65 -3 -65 -15z"/>
<path d="M9990 1425 c0 -12 14 -15 65 -15 51 0 65 3 65 15 0 12 -14 15 -65 15
-51 0 -65 -3 -65 -15z"/>
<path d="M10240 1425 c0 -12 14 -15 65 -15 51 0 65 3 65 15 0 12 -14 15 -65
15 -51 0 -65 -3 -65 -15z"/>
<path d="M10480 1425 c0 -12 14 -15 70 -15 56 0 70 3 70 15 0 12 -14 15 -70
15 -56 0 -70 -3 -70 -15z"/>
<path d="M10730 1425 c0 -12 14 -15 70 -15 56 0 70 3 70 15 0 12 -14 15 -70
15 -56 0 -70 -3 -70 -15z"/>
<path d="M10980 1425 c0 -12 14 -15 70 -15 56 0 70 3 70 15 0 12 -14 15 -70
15 -56 0 -70 -3 -70 -15z"/>
<path d="M11230 1425 c0 -12 14 -15 70 -15 56 0 70 3 70 15 0 12 -14 15 -70
15 -56 0 -70 -3 -70 -15z"/>
<path d="M11480 1425 c0 -12 14 -15 70 -15 56 0 70 3 70 15 0 12 -14 15 -70
15 -56 0 -70 -3 -70 -15z"/>
<path d="M11730 1425 c0 -12 14 -15 65 -15 51 0 65 3 65 15 0 12 -14 15 -65
15 -51 0 -65 -3 -65 -15z"/>
<path d="M11980 1425 c0 -12 14 -15 65 -15 51 0 65 3 65 15 0 12 -14 15 -65
15 -51 0 -65 -3 -65 -15z"/>
<path d="M12230 1425 c0 -12 14 -15 65 -15 51 0 65 3 65 15 0 12 -14 15 -65
15 -51 0 -65 -3 -65 -15z"/>
<path d="M12480 1425 c0 -12 14 -15 65 -15 51 0 65 3 65 15 0 12 -14 15 -65
15 -51 0 -65 -3 -65 -15z"/>
<path d="M12730 1425 c0 -12 14 -15 65 -15 51 0 65 3 65 15 0 12 -14 15 -65
15 -51 0 -65 -3 -65 -15z"/>
<path d="M12980 1425 c0 -12 14 -15 65 -15 51 0 65 3 65 15 0 12 -14 15 -65
15 -51 0 -65 -3 -65 -15z"/>
<path d="M13220 1425 c0 -12 14 -15 70 -15 56 0 70 3 70 15 0 12 -14 15 -70
15 -56 0 -70 -3 -70 -15z"/>
<path d="M13470 1425 c0 -12 14 -15 70 -15 56 0 70 3 70 15 0 12 -14 15 -70
15 -56 0 -70 -3 -70 -15z"/>
<path d="M13720 1425 c0 -12 14 -15 70 -15 56 0 70 3 70 15 0 12 -14 15 -70
15 -56 0 -70 -3 -70 -15z"/>
<path d="M13970 1425 c0 -12 14 -15 70 -15 56 0 70 3 70 15 0 12 -14 15 -70
15 -56 0 -70 -3 -70 -15z"/>
<path d="M14220 1425 c0 -12 14 -15 70 -15 56 0 70 3 70 15 0 12 -14 15 -70
15 -56 0 -70 -3 -70 -15z"/>
<path d="M14470 1425 c0 -12 14 -15 65 -15 51 0 65 3 65 15 0 12 -14 15 -65
15 -51 0 -65 -3 -65 -15z"/>
<path d="M14720 1425 c0 -12 14 -15 65 -15 51 0 65 3 65 15 0 12 -14 15 -65
15 -51 0 -65 -3 -65 -15z"/>
<path d="M14970 1425 c0 -12 14 -15 65 -15 51 0 65 3 65 15 0 12 -14 15 -65
15 -51 0 -65 -3 -65 -15z"/>
<path d="M15220 1425 c0 -12 14 -15 65 -15 51 0 65 3 65 15 0 12 -14 15 -65
15 -51 0 -65 -3 -65 -15z"/>
<path d="M12530 1375 c0 -8 7 -15 15 -15 8 0 15 7 15 15 0 8 -7 15 -15 15 -8
0 -15 -7 -15 -15z"/>
<path d="M9330 1325 c0 -8 7 -15 15 -15 8 0 15 7 15 15 0 8 -7 15 -15 15 -8 0
-15 -7 -15 -15z"/>
<path d="M15730 1325 c0 -8 7 -15 15 -15 8 0 15 7 15 15 0 8 -7 15 -15 15 -8
0 -15 -7 -15 -15z"/>
<path d="M12530 1275 c0 -8 7 -15 15 -15 8 0 15 7 15 15 0 8 -7 15 -15 15 -8
0 -15 -7 -15 -15z"/>
<path d="M9330 1225 c0 -8 7 -15 15 -15 8 0 15 7 15 15 0 8 -7 15 -15 15 -8 0
-15 -7 -15 -15z"/>
<path d="M15730 1225 c0 -8 7 -15 15 -15 8 0 15 7 15 15 0 8 -7 15 -15 15 -8
0 -15 -7 -15 -15z"/>
<path d="M12530 1175 c0 -8 7 -15 15 -15 8 0 15 7 15 15 0 8 -7 15 -15 15 -8
0 -15 -7 -15 -15z"/>
<path d="M9330 1125 c0 -8 7 -15 15 -15 8 0 15 7 15 15 0 8 -7 15 -15 15 -8 0
-15 -7 -15 -15z"/>
<path d="M15730 1125 c0 -8 7 -15 15 -15 8 0 15 7 15 15 0 8 -7 15 -15 15 -8
0 -15 -7 -15 -15z"/>
<path d="M4130 1100 c0 -11 5 -20 10 -20 6 0 10 -38 10 -95 0 -57 -4 -95 -10
-95 -5 0 -10 -7 -10 -15 0 -11 12 -15 45 -15 44 0 60 15 30 26 -10 4 -15 20
-15 50 l0 44 40 0 40 0 0 -45 c0 -33 -4 -45 -15 -45 -8 0 -15 -7 -15 -15 0
-11 12 -15 45 -15 33 0 45 4 45 15 0 8 -4 15 -10 15 -6 0 -10 38 -10 94 0 53
4 98 10 101 6 3 10 13 10 21 0 10 -12 14 -39 14 -45 0 -62 -17 -38 -35 10 -7
17 -26 17 -44 0 -30 -2 -31 -40 -31 -38 0 -40 1 -40 31 0 18 7 37 17 44 24 18
7 35 -38 35 -32 0 -39 -3 -39 -20z"/>
<path d="M4795 1111 c-11 -18 5 -31 36 -31 l29 0 0 -95 0 -95 -35 0 c-24 0
-35 -5 -35 -15 0 -12 17 -15 90 -15 73 0 90 3 90 15 0 10 -11 15 -35 15 l-34
0 -3 113 -3 112 -47 3 c-25 2 -49 -2 -53 -7z"/>
<path d="M4390 1065 c0 -20 -5 -25 -25 -25 -16 0 -25 -6 -25 -15 0 -9 9 -15
25 -15 24 0 25 -2 25 -65 0 -58 3 -66 25 -81 44 -29 105 0 105 50 0 23 -27 20
-40 -4 -6 -11 -20 -20 -30 -20 -18 0 -20 7 -20 60 l0 60 40 0 c29 0 40 4 40
15 0 11 -11 15 -40 15 -36 0 -40 3 -40 25 0 18 -5 25 -20 25 -15 0 -20 -7 -20
-25z"/>
<path d="M12530 1075 c0 -8 7 -15 15 -15 8 0 15 7 15 15 0 8 -7 15 -15 15 -8
0 -15 -7 -15 -15z"/>
<path d="M4595 1042 c-46 -4 -67 -18 -42 -28 23 -9 25 -119 2 -128 -8 -3 -15
-10 -15 -16 0 -6 43 -10 115 -10 96 0 115 3 115 15 0 8 -7 15 -15 15 -12 0
-15 14 -15 70 0 75 -14 95 -55 80 -11 -4 -27 -5 -35 -1 -8 3 -33 5 -55 3z m45
-90 c0 -63 -4 -74 -26 -65 -18 7 -19 94 -2 111 22 22 28 12 28 -46z m70 0 c0
-63 -4 -74 -26 -65 -27 10 -12 123 16 123 6 0 10 -26 10 -58z"/>
<path d="M9330 1025 c0 -8 7 -15 15 -15 8 0 15 7 15 15 0 8 -7 15 -15 15 -8 0
-15 -7 -15 -15z"/>
<path d="M15730 1025 c0 -8 7 -15 15 -15 8 0 15 7 15 15 0 8 -7 15 -15 15 -8
0 -15 -7 -15 -15z"/>
<path d="M12530 975 c0 -8 7 -15 15 -15 8 0 15 7 15 15 0 8 -7 15 -15 15 -8 0
-15 -7 -15 -15z"/>
<path d="M9330 925 c0 -8 7 -15 15 -15 8 0 15 7 15 15 0 8 -7 15 -15 15 -8 0
-15 -7 -15 -15z"/>
<path d="M15730 925 c0 -8 7 -15 15 -15 8 0 15 7 15 15 0 8 -7 15 -15 15 -8 0
-15 -7 -15 -15z"/>
<path d="M12530 875 c0 -8 7 -15 15 -15 8 0 15 7 15 15 0 8 -7 15 -15 15 -8 0
-15 -7 -15 -15z"/>
<path d="M9330 825 c0 -8 7 -15 15 -15 8 0 15 7 15 15 0 8 -7 15 -15 15 -8 0
-15 -7 -15 -15z"/>
<path d="M15730 825 c0 -8 7 -15 15 -15 8 0 15 7 15 15 0 8 -7 15 -15 15 -8 0
-15 -7 -15 -15z"/>
<path d="M12530 775 c0 -8 7 -15 15 -15 8 0 15 7 15 15 0 8 -7 15 -15 15 -8 0
-15 -7 -15 -15z"/>
<path d="M9330 725 c0 -8 7 -15 15 -15 8 0 15 7 15 15 0 8 -7 15 -15 15 -8 0
-15 -7 -15 -15z"/>
<path d="M15730 725 c0 -8 7 -15 15 -15 8 0 15 7 15 15 0 8 -7 15 -15 15 -8 0
-15 -7 -15 -15z"/>
<path d="M3380 715 c0 -12 14 -15 70 -15 56 0 70 3 70 15 0 12 -14 15 -70 15
-56 0 -70 -3 -70 -15z"/>
<path d="M3630 715 c0 -12 14 -15 70 -15 56 0 70 3 70 15 0 12 -14 15 -70 15
-56 0 -70 -3 -70 -15z"/>
<path d="M3880 715 c0 -12 14 -15 70 -15 56 0 70 3 70 15 0 12 -14 15 -70 15
-56 0 -70 -3 -70 -15z"/>
<path d="M4130 715 c0 -12 14 -15 65 -15 51 0 65 3 65 15 0 12 -14 15 -65 15
-51 0 -65 -3 -65 -15z"/>
<path d="M4380 715 c0 -12 14 -15 65 -15 51 0 65 3 65 15 0 12 -14 15 -65 15
-51 0 -65 -3 -65 -15z"/>
<path d="M4630 715 c0 -12 14 -15 65 -15 51 0 65 3 65 15 0 12 -14 15 -65 15
-51 0 -65 -3 -65 -15z"/>
<path d="M4880 715 c0 -12 14 -15 65 -15 51 0 65 3 65 15 0 12 -14 15 -65 15
-51 0 -65 -3 -65 -15z"/>
<path d="M5130 715 c0 -12 14 -15 65 -15 51 0 65 3 65 15 0 12 -14 15 -65 15
-51 0 -65 -3 -65 -15z"/>
<path d="M5380 715 c0 -12 14 -15 65 -15 51 0 65 3 65 15 0 12 -14 15 -65 15
-51 0 -65 -3 -65 -15z"/>
<path d="M5620 715 c0 -12 14 -15 70 -15 56 0 70 3 70 15 0 12 -14 15 -70 15
-56 0 -70 -3 -70 -15z"/>
<path d="M12530 675 c0 -8 7 -15 15 -15 8 0 15 7 15 15 0 8 -7 15 -15 15 -8 0
-15 -7 -15 -15z"/>
<path d="M9330 625 c0 -8 7 -15 15 -15 8 0 15 7 15 15 0 8 -7 15 -15 15 -8 0
-15 -7 -15 -15z"/>
<path d="M15730 625 c0 -8 7 -15 15 -15 8 0 15 7 15 15 0 8 -7 15 -15 15 -8 0
-15 -7 -15 -15z"/>
<path d="M12530 580 c0 -5 7 -10 15 -10 8 0 15 5 15 10 0 6 -7 10 -15 10 -8 0
-15 -4 -15 -10z"/>
<path d="M9330 525 c0 -8 7 -15 15 -15 8 0 15 7 15 15 0 8 -7 15 -15 15 -8 0
-15 -7 -15 -15z"/>
<path d="M15730 525 c0 -8 7 -15 15 -15 8 0 15 7 15 15 0 8 -7 15 -15 15 -8 0
-15 -7 -15 -15z"/>
<path d="M2940 505 c0 -8 7 -15 15 -15 8 0 15 7 15 15 0 8 -7 15 -15 15 -8 0
-15 -7 -15 -15z"/>
<path d="M6140 505 c0 -8 5 -15 10 -15 6 0 10 7 10 15 0 8 -4 15 -10 15 -5 0
-10 -7 -10 -15z"/>
<path d="M12530 480 c0 -5 7 -10 15 -10 8 0 15 5 15 10 0 6 -7 10 -15 10 -8 0
-15 -4 -15 -10z"/>
<path d="M9330 425 c0 -8 7 -15 15 -15 8 0 15 7 15 15 0 8 -7 15 -15 15 -8 0
-15 -7 -15 -15z"/>
<path d="M15730 425 c0 -8 7 -15 15 -15 8 0 15 7 15 15 0 8 -7 15 -15 15 -8 0
-15 -7 -15 -15z"/>
<path d="M2940 405 c0 -8 7 -15 15 -15 8 0 15 7 15 15 0 8 -7 15 -15 15 -8 0
-15 -7 -15 -15z"/>
<path d="M6140 405 c0 -8 5 -15 10 -15 6 0 10 7 10 15 0 8 -4 15 -10 15 -5 0
-10 -7 -10 -15z"/>
<path d="M12530 380 c0 -5 7 -10 15 -10 8 0 15 5 15 10 0 6 -7 10 -15 10 -8 0
-15 -4 -15 -10z"/>
<path d="M9330 325 c0 -8 7 -15 15 -15 8 0 15 7 15 15 0 8 -7 15 -15 15 -8 0
-15 -7 -15 -15z"/>
<path d="M15730 325 c0 -8 7 -15 15 -15 8 0 15 7 15 15 0 8 -7 15 -15 15 -8 0
-15 -7 -15 -15z"/>
<path d="M2940 310 c0 -5 7 -10 15 -10 8 0 15 5 15 10 0 6 -7 10 -15 10 -8 0
-15 -4 -15 -10z"/>
<path d="M6140 310 c0 -5 5 -10 10 -10 6 0 10 5 10 10 0 6 -4 10 -10 10 -5 0
-10 -4 -10 -10z"/>
<path d="M12530 280 c0 -5 7 -10 15 -10 8 0 15 5 15 10 0 6 -7 10 -15 10 -8 0
-15 -4 -15 -10z"/>
<path d="M9330 225 c0 -8 7 -15 15 -15 8 0 15 7 15 15 0 8 -7 15 -15 15 -8 0
-15 -7 -15 -15z"/>
<path d="M15730 225 c0 -8 7 -15 15 -15 8 0 15 7 15 15 0 8 -7 15 -15 15 -8 0
-15 -7 -15 -15z"/>
<path d="M2940 210 c0 -5 7 -10 15 -10 8 0 15 5 15 10 0 6 -7 10 -15 10 -8 0
-15 -4 -15 -10z"/>
<path d="M6140 210 c0 -5 5 -10 10 -10 6 0 10 5 10 10 0 6 -4 10 -10 10 -5 0
-10 -4 -10 -10z"/>
<path d="M12530 180 c0 -5 7 -10 15 -10 8 0 15 5 15 10 0 6 -7 10 -15 10 -8 0
-15 -4 -15 -10z"/>
<path d="M9330 125 c0 -8 7 -15 15 -15 8 0 15 7 15 15 0 8 -7 15 -15 15 -8 0
-15 -7 -15 -15z"/>
<path d="M15730 125 c0 -8 7 -15 15 -15 8 0 15 7 15 15 0 8 -7 15 -15 15 -8 0
-15 -7 -15 -15z"/>
<path d="M2940 110 c0 -5 7 -10 15 -10 8 0 15 5 15 10 0 6 -7 10 -15 10 -8 0
-15 -4 -15 -10z"/>
<path d="M6140 110 c0 -5 5 -10 10 -10 6 0 10 5 10 10 0 6 -4 10 -10 10 -5 0
-10 -4 -10 -10z"/>
<path d="M12530 80 c0 -5 7 -10 15 -10 8 0 15 5 15 10 0 6 -7 10 -15 10 -8 0
-15 -4 -15 -10z"/>
<path d="M9330 25 c0 -8 7 -15 15 -15 8 0 15 7 15 15 0 8 -7 15 -15 15 -8 0
-15 -7 -15 -15z"/>
<path d="M15730 25 c0 -8 7 -15 15 -15 8 0 15 7 15 15 0 8 -7 15 -15 15 -8 0
-15 -7 -15 -15z"/>
<path d="M2940 10 c0 -5 7 -10 15 -10 8 0 15 5 15 10 0 6 -7 10 -15 10 -8 0
-15 -4 -15 -10z"/>
<path d="M6140 10 c0 -5 5 -10 10 -10 6 0 10 5 10 10 0 6 -4 10 -10 10 -5 0
-10 -4 -10 -10z"/>
</g>
</svg>
