<?xml version="1.0" encoding="UTF-8" standalone="no"?>
<!DOCTYPE svg PUBLIC "-//W3C//DTD SVG 1.1//EN" "http://www.w3.org/Graphics/SVG/1.1/DTD/svg11.dtd">
<svg width="100%" height="100%" viewBox="0 0 1555 469" version="1.1" xmlns="http://www.w3.org/2000/svg" xmlns:xlink="http://www.w3.org/1999/xlink" xml:space="preserve" xmlns:serif="http://www.serif.com/" style="fill-rule:evenodd;clip-rule:evenodd;stroke-linejoin:round;stroke-miterlimit:2;">
    <g id="Software-Factory-Logo" serif:id="Software Factory Logo" transform="matrix(1.74539,0,0,1.74544,-3484.93,-384.009)">
        <g id="Name">
            <g id="Laborname" transform="matrix(0.627932,0,0,0.627932,1471.21,-258.697)">
                <path d="M1379,938.154C1379,945.716 1379.66,953.771 1382.12,960.017C1386.73,971.524 1400.04,976.785 1423.39,976.785C1461.85,976.785 1472.87,964.127 1472.87,941.277C1472.87,920.071 1467.11,910.702 1444.76,906.756L1421.58,902.811C1411.55,901.003 1409.74,896.071 1409.74,890.811C1409.74,883.414 1414.35,878.811 1427.82,878.811C1437.36,878.811 1440.81,880.783 1442.62,883.085C1444.43,885.222 1445.09,889.825 1445.25,893.112L1470.4,893.112C1470.4,887.194 1470.07,878.975 1467.77,872.728C1463.5,860.893 1449.85,857.112 1427,857.112C1393.3,857.112 1382.29,871.742 1382.29,892.948C1382.29,914.318 1391.17,924.181 1410.4,927.304L1431.93,930.921C1442.95,932.894 1444.92,935.688 1444.92,943.085C1444.92,951.305 1439.82,955.086 1425.03,955.086C1414.51,955.086 1409.25,952.291 1407.28,949.003C1405.47,946.373 1404.65,942.099 1404.65,938.154L1379,938.154Z" style="fill:rgb(60,60,59);fill-rule:nonzero;"/>
                <path d="M1568.7,932.894C1568.7,896.893 1553.41,890.318 1527.77,890.318C1503.93,890.318 1485.69,897.222 1485.69,933.387C1485.69,968.401 1499.99,976.785 1526.62,976.785C1554.4,976.785 1568.7,967.908 1568.7,932.894ZM1542.4,933.715C1542.4,952.291 1537.8,956.401 1527.11,956.401C1516.43,956.401 1512.15,951.798 1512.15,933.387C1512.15,916.126 1516.92,911.195 1527.44,911.195C1538.95,911.195 1542.4,916.126 1542.4,933.715Z" style="fill:rgb(60,60,59);fill-rule:nonzero;"/>
                <path d="M1627.72,974.976L1627.72,953.935L1615.72,953.935L1615.72,913.496L1632.16,913.496L1632.16,892.29L1615.72,892.29L1615.72,884.729C1615.72,879.961 1616.21,876.838 1617.69,874.865C1619.17,872.893 1622.29,872.071 1625.91,872.071C1630.68,872.071 1634.95,872.893 1638.4,873.879L1643.33,853.002C1639.39,851.523 1631.83,850.208 1622.46,850.208C1609.96,850.208 1602.73,852.345 1597.63,856.619C1593.03,860.4 1589.74,868.126 1589.74,880.619L1589.74,892.29L1578.4,892.29L1578.4,913.496L1589.74,913.496L1589.74,953.935L1580.87,953.935L1580.87,974.976L1627.72,974.976Z" style="fill:rgb(60,60,59);fill-rule:nonzero;"/>
                <path d="M1693.31,974.154L1691.66,953.442C1688.87,954.264 1684.92,954.428 1681.47,954.428C1677.69,954.428 1675.39,953.606 1674.57,951.798C1673.42,949.497 1673.25,945.716 1673.25,941.442L1673.25,913.496L1690.68,913.496L1690.68,892.29L1673.25,892.29L1673.25,870.098L1648.43,870.098L1647.77,892.29L1635.94,892.29L1635.94,913.496L1647.12,913.496L1647.12,948.346C1647.12,958.209 1648.59,964.62 1651.88,968.894C1655.33,973.332 1661.75,976.456 1673.42,976.456C1682.79,976.456 1688.7,975.469 1693.31,974.154Z" style="fill:rgb(60,60,59);fill-rule:nonzero;"/>
                <path d="M1825.14,913.332L1825.14,892.29L1785.03,892.29L1785.03,913.332L1793.75,913.332C1788.98,934.537 1787.66,941.113 1786.51,948.017C1784.38,939.305 1781.09,928.126 1770.73,894.756L1752.32,894.756C1743.12,927.962 1740.49,937.332 1737.86,948.017C1736.38,938.647 1734.57,931.25 1730.29,913.332L1738.18,913.332L1738.18,892.29L1696.43,892.29L1696.43,913.332L1703.99,913.332L1721.25,975.141L1746.4,975.141C1755.12,948.51 1759.23,934.702 1761.03,927.798C1762.68,934.702 1766.46,948.51 1774.84,975.141L1799.99,975.141L1817.42,913.332L1825.14,913.332Z" style="fill:rgb(60,60,59);fill-rule:nonzero;"/>
                <path d="M1882.02,965.113C1883.5,972.51 1886.79,976.127 1900.1,976.127C1906.19,976.127 1912.6,975.305 1916.21,974.319L1915.06,953.771C1913.26,954.099 1910.95,954.099 1909.31,954.099C1906.02,954.099 1905.2,952.291 1905.2,948.839L1905.2,917.77C1905.2,908.071 1903.39,901.66 1899.12,897.058C1894.84,892.455 1885.97,889.989 1868.21,889.989C1847.17,889.989 1833.69,897.222 1833.69,916.948L1833.69,920.071L1857.04,920.071C1857.04,919.085 1857.04,917.77 1857.36,916.126C1858.02,912.345 1861.47,910.866 1868.05,910.866C1876.1,910.866 1878.24,913.003 1878.9,915.633C1879.23,917.441 1879.23,920.565 1879.23,923.359L1879.23,925.825C1875.12,925.496 1871.5,925.496 1867.06,925.496C1855.39,925.496 1843.56,927.469 1838.46,930.757C1832.05,935.195 1829.58,941.113 1829.58,950.154C1829.58,964.127 1835.34,976.785 1858.02,976.785C1868.87,976.785 1878.4,973.497 1882.02,965.113ZM1879.23,942.428L1879.23,946.044C1879.23,948.346 1879.06,950.647 1878.57,951.962C1877.58,955.086 1873.47,957.551 1865.58,957.551C1856.54,957.551 1854.08,954.428 1854.08,949.99C1854.08,947.031 1855.06,945.551 1856.54,944.401C1859.01,942.757 1863.61,942.264 1869.53,942.264C1872.16,942.264 1876.27,942.264 1879.23,942.428Z" style="fill:rgb(60,60,59);fill-rule:nonzero;"/>
                <path d="M1971.12,974.976L1971.12,953.935L1959.12,953.935L1959.12,922.044C1959.12,920.565 1959.45,918.428 1959.78,917.77C1960.43,916.619 1961.09,915.633 1962.08,914.976C1964.05,913.66 1967.17,912.674 1971.61,912.674C1976.54,912.674 1981.48,913.66 1984.93,914.318L1988.71,891.797C1986.57,890.811 1982.63,890.153 1977.37,890.153C1968.32,890.153 1959.94,894.92 1958.3,902.975C1957.8,896.236 1955.5,891.14 1940.87,891.14C1936.76,891.14 1926.9,891.962 1922.95,892.783L1924.27,913.332C1925.91,913.167 1928.21,913.003 1929.53,913.003C1932.16,913.003 1932.98,914.318 1932.98,917.113L1932.98,953.935L1924.27,953.935L1924.27,974.976L1971.12,974.976Z" style="fill:rgb(60,60,59);fill-rule:nonzero;"/>
                <path d="M2018.46,941.113L2067.78,941.113C2068.11,938.154 2068.27,933.387 2068.27,931.414C2068.27,905.277 2065.15,890.318 2032.11,890.318C2003.67,890.318 1991.83,902.153 1991.83,934.044C1991.83,963.305 2001.04,976.785 2031.94,976.785C2045.59,976.785 2060.38,974.483 2068.43,970.045L2063.01,951.798C2058.41,953.606 2049.2,956.236 2036.38,956.236C2025.2,956.236 2019.45,953.442 2018.46,941.113ZM2018.79,923.359C2019.12,913.003 2022.74,908.236 2031.94,908.236C2041.97,908.236 2044.11,912.181 2044.11,920.893C2044.11,921.551 2044.11,922.702 2043.94,923.359L2018.79,923.359Z" style="fill:rgb(60,60,59);fill-rule:nonzero;"/>
                <path d="M1429.63,1139.36L1429.63,1118.16L1417.47,1118.16L1417.47,1092.68L1448.04,1092.68L1448.04,1071.14L1417.47,1071.14L1417.47,1044.51L1443.11,1044.51L1443.77,1057.17L1463.99,1057.17L1463.99,1023.31L1380.97,1023.31L1380.97,1044.51L1390.51,1044.51L1390.51,1118.16L1380.97,1118.16L1380.97,1139.36L1429.63,1139.36Z" style="fill:rgb(60,60,59);fill-rule:nonzero;"/>
                <path d="M1515.28,1129.5C1516.76,1136.9 1520.05,1140.51 1533.36,1140.51C1539.44,1140.51 1545.85,1139.69 1549.47,1138.7L1548.32,1118.16C1546.51,1118.49 1544.21,1118.49 1542.57,1118.49C1539.28,1118.49 1538.46,1116.68 1538.46,1113.23L1538.46,1082.16C1538.46,1072.46 1536.65,1066.05 1532.37,1061.44C1528.1,1056.84 1519.22,1054.38 1501.47,1054.38C1480.43,1054.38 1466.95,1061.61 1466.95,1081.33L1466.95,1084.46L1490.29,1084.46C1490.29,1083.47 1490.29,1082.16 1490.62,1080.51C1491.28,1076.73 1494.73,1075.25 1501.31,1075.25C1509.36,1075.25 1511.5,1077.39 1512.15,1080.02C1512.48,1081.83 1512.48,1084.95 1512.48,1087.75L1512.48,1090.21C1508.37,1089.88 1504.76,1089.88 1500.32,1089.88C1488.65,1089.88 1476.81,1091.85 1471.71,1095.14C1465.3,1099.58 1462.84,1105.5 1462.84,1114.54C1462.84,1128.51 1468.59,1141.17 1491.28,1141.17C1502.13,1141.17 1511.66,1137.88 1515.28,1129.5ZM1512.48,1106.81L1512.48,1110.43C1512.48,1112.73 1512.32,1115.03 1511.83,1116.35C1510.84,1119.47 1506.73,1121.94 1498.84,1121.94C1489.8,1121.94 1487.33,1118.81 1487.33,1114.38C1487.33,1111.42 1488.32,1109.94 1489.8,1108.79C1492.26,1107.14 1496.87,1106.65 1502.78,1106.65C1505.41,1106.65 1509.52,1106.65 1512.48,1106.81Z" style="fill:rgb(60,60,59);fill-rule:nonzero;"/>
                <path d="M1583.83,1098.27C1583.83,1081.5 1586.79,1075.58 1596.65,1075.58C1601.25,1075.58 1603.88,1076.57 1604.87,1078.21C1606.35,1080.51 1606.35,1083.8 1606.51,1086.59L1630.02,1086.59C1630.02,1080.35 1629.69,1074.43 1627.72,1068.51C1623.77,1057.33 1613.25,1054.7 1598.79,1054.7C1568.05,1054.7 1557.36,1068.02 1557.36,1099.25C1557.36,1132.13 1572.48,1141.17 1598.29,1141.17C1611.94,1141.17 1623.11,1138.54 1630.51,1134.76L1624.76,1115.03C1620.48,1116.68 1612.43,1119.47 1600.76,1119.47C1588.1,1119.47 1583.83,1113.39 1583.83,1098.27Z" style="fill:rgb(60,60,59);fill-rule:nonzero;"/>
                <path d="M1694.29,1138.54L1692.65,1117.83C1689.86,1118.65 1685.91,1118.81 1682.46,1118.81C1678.68,1118.81 1676.38,1117.99 1675.55,1116.18C1674.4,1113.88 1674.24,1110.1 1674.24,1105.83L1674.24,1077.88L1691.66,1077.88L1691.66,1056.68L1674.24,1056.68L1674.24,1034.48L1649.42,1034.48L1648.76,1056.68L1636.92,1056.68L1636.92,1077.88L1648.1,1077.88L1648.1,1112.73C1648.1,1122.6 1649.58,1129.01 1652.87,1133.28C1656.32,1137.72 1662.73,1140.84 1674.4,1140.84C1683.77,1140.84 1689.69,1139.86 1694.29,1138.54Z" style="fill:rgb(60,60,59);fill-rule:nonzero;"/>
                <path d="M1784.54,1097.28C1784.54,1061.28 1769.25,1054.7 1743.61,1054.7C1719.77,1054.7 1701.53,1061.61 1701.53,1097.77C1701.53,1132.79 1715.83,1141.17 1742.46,1141.17C1770.24,1141.17 1784.54,1132.29 1784.54,1097.28ZM1758.24,1098.1C1758.24,1116.68 1753.64,1120.79 1742.95,1120.79C1732.27,1120.79 1727.99,1116.18 1727.99,1097.77C1727.99,1080.51 1732.76,1075.58 1743.28,1075.58C1754.79,1075.58 1758.24,1080.51 1758.24,1098.1Z" style="fill:rgb(60,60,59);fill-rule:nonzero;"/>
                <path d="M1842.9,1139.36L1842.9,1118.32L1830.9,1118.32L1830.9,1086.43C1830.9,1084.95 1831.23,1082.81 1831.56,1082.16C1832.21,1081.01 1832.87,1080.02 1833.86,1079.36C1835.83,1078.05 1838.95,1077.06 1843.39,1077.06C1848.32,1077.06 1853.25,1078.05 1856.71,1078.7L1860.49,1056.18C1858.35,1055.2 1854.4,1054.54 1849.14,1054.54C1840.1,1054.54 1831.72,1059.31 1830.08,1067.36C1829.58,1060.62 1827.28,1055.53 1812.65,1055.53C1808.54,1055.53 1798.68,1056.35 1794.73,1057.17L1796.05,1077.72C1797.69,1077.55 1799.99,1077.39 1801.31,1077.39C1803.94,1077.39 1804.76,1078.7 1804.76,1081.5L1804.76,1118.32L1796.05,1118.32L1796.05,1139.36L1842.9,1139.36Z" style="fill:rgb(60,60,59);fill-rule:nonzero;"/>
                <path d="M1955.5,1077.72L1955.5,1056.68L1914.73,1056.68L1914.73,1077.72L1921.47,1077.72C1914.57,1094.65 1911.94,1102.54 1909.14,1110.59C1906.68,1102.38 1904.05,1095.31 1897.31,1077.72L1903.56,1077.72L1903.56,1056.68L1861.64,1056.68L1861.64,1077.72L1869.86,1077.72L1895.5,1138.7L1894.02,1142.32C1892.21,1147.42 1890.9,1150.38 1889.26,1153.17C1886.62,1157.77 1883.17,1159.25 1877.25,1159.25C1871.99,1159.25 1868.05,1158.27 1864.76,1157.61L1860.82,1177.83C1862.79,1178.81 1871.5,1180.46 1881.86,1180.46C1897.8,1180.46 1905.86,1174.7 1912.1,1162.54C1914.41,1158.27 1917.04,1152.35 1919.67,1145.61L1947.78,1077.72L1955.5,1077.72Z" style="fill:rgb(60,60,59);fill-rule:nonzero;"/>
            </g>
            <g id="Part-of-TeStUp" serif:id="Part of TeStUp" transform="matrix(0.259096,0,0,0.259096,2487.28,161.54)">
                <path d="M1057.13,974.976L1057.13,966.593L1042.34,966.593L1042.34,924.51L1061.74,924.51C1071.11,924.51 1080.15,923.688 1084.59,922.373C1098.56,918.428 1105.96,908.4 1105.96,891.633C1105.96,877.824 1101.85,867.304 1089.52,862.537C1083.27,860.071 1073.08,858.92 1060.92,858.92L1019.98,858.92L1019.98,867.304L1032.31,867.304L1032.31,966.593L1019.98,966.593L1019.98,974.976L1057.13,974.976ZM1042.34,916.126L1042.34,867.304L1061.41,867.304C1073.08,867.304 1080.31,868.619 1084.26,870.427C1090.83,873.386 1095.44,878.646 1095.44,892.126C1095.44,902.975 1091.33,910.373 1084.26,913.332C1079.82,915.14 1073.08,916.126 1062.56,916.126L1042.34,916.126Z" style="fill:rgb(60,60,59);fill-rule:nonzero;"/>
                <path d="M1168.42,964.291C1168.59,970.373 1171.05,975.963 1181.74,975.963C1184.2,975.963 1187.82,975.798 1190.29,974.976L1189.14,967.086C1187,967.579 1185.03,967.579 1183.22,967.579C1178.29,967.579 1176.81,964.291 1176.81,958.209L1176.81,917.441C1176.81,907.578 1175.99,902.153 1171.88,897.551C1167.77,893.277 1160.04,891.304 1147.05,891.304C1130.94,891.304 1118.12,895.578 1118.12,912.017L1118.12,914.647L1127.33,914.647C1127.33,913.332 1127.33,912.181 1127.49,910.208C1128.15,903.304 1132.92,899.523 1146.89,899.523C1159.71,899.523 1163.99,902.811 1165.79,906.592C1167.11,909.222 1167.44,915.633 1167.44,919.907L1167.44,929.77C1163,929.277 1154.62,929.277 1148.7,929.277C1138.34,929.277 1128.64,930.757 1123.22,933.387C1116.48,937.003 1113.19,942.592 1113.19,952.291C1113.19,964.62 1118.45,976.785 1141.63,976.785C1153.46,976.785 1164.81,973.826 1168.42,964.291ZM1167.44,937.496L1167.44,949.168C1167.44,952.949 1166.78,956.565 1165.63,959.031C1163.33,964.291 1155.11,968.565 1143.11,968.565C1127.16,968.565 1122.4,960.839 1122.4,952.127C1122.4,946.702 1124.04,943.414 1126.67,941.442C1130.78,938.318 1138.51,937.168 1149.52,937.168C1155.27,937.168 1163.82,937.332 1167.44,937.496Z" style="fill:rgb(60,60,59);fill-rule:nonzero;"/>
                <path d="M1241.74,974.976L1241.74,966.757L1226.45,966.757L1226.45,917.113C1226.45,914.811 1226.78,912.017 1227.27,910.702C1227.93,909.222 1228.92,907.414 1229.9,906.427C1232.37,903.797 1237.63,900.674 1245.03,900.674C1248.81,900.674 1252.92,901.332 1255.88,902.318L1258.01,892.619C1256.54,891.962 1253.41,890.975 1248.32,890.975C1237.96,890.975 1228.1,894.92 1225.96,905.112C1225.96,896.729 1223.99,892.455 1214.45,892.455C1212.81,892.455 1207.22,892.619 1205.08,893.112L1205.74,901.167C1207.55,900.838 1209.85,900.838 1211.16,900.838C1216.59,900.838 1217.08,904.29 1217.08,908.236L1217.08,966.757L1205.9,966.757L1205.9,974.976L1241.74,974.976Z" style="fill:rgb(60,60,59);fill-rule:nonzero;"/>
                <path d="M1314.07,973.99L1312.26,966.264C1309.47,967.25 1304.86,967.908 1300.26,967.908C1295.66,967.908 1292.86,966.593 1291.38,964.784C1289.9,962.812 1289.08,958.209 1289.08,952.291L1289.08,901.496L1308.64,901.496L1308.64,893.277L1289.08,893.277L1289.08,870.591L1280.54,870.591L1280.04,893.277L1267.88,893.277L1267.88,901.496L1279.71,901.496L1279.71,953.277C1279.71,961.825 1280.86,966.921 1283.33,970.702C1285.63,974.154 1291.22,976.456 1298.12,976.456C1304.86,976.456 1310.29,975.634 1314.07,973.99Z" style="fill:rgb(60,60,59);fill-rule:nonzero;"/>
                <path d="M1432.92,933.387C1432.92,897.551 1419.77,891.304 1397.25,891.304C1376.7,891.304 1360.1,897.879 1360.1,933.88C1360.1,968.894 1371.77,976.785 1396.1,976.785C1421.08,976.785 1432.92,968.401 1432.92,933.387ZM1423.55,934.209C1423.55,963.469 1415.17,968.401 1396.59,968.401C1377.85,968.401 1369.63,962.483 1369.63,933.551C1369.63,906.263 1379,899.523 1396.92,899.523C1415.5,899.523 1423.55,906.592 1423.55,934.209Z" style="fill:rgb(60,60,59);fill-rule:nonzero;"/>
                <path d="M1487.5,974.976L1487.5,966.757L1472.21,966.757L1472.21,901.496L1491.77,901.496L1491.77,893.277L1472.21,893.277L1472.21,879.797C1472.21,871.413 1473.03,867.304 1475,864.345C1477.14,860.893 1481.09,858.92 1487.5,858.92C1492.76,858.92 1498.02,859.906 1501.8,861.221L1504.1,853.002C1499.33,851.358 1494.4,850.701 1488.48,850.701C1480.76,850.701 1474.35,851.851 1469.41,856.619C1464.98,860.893 1463,867.304 1463,879.468L1463,893.277L1451,893.277L1451,901.496L1463,901.496L1463,966.757L1451.83,966.757L1451.83,974.976L1487.5,974.976Z" style="fill:rgb(60,60,59);fill-rule:nonzero;"/>
                <path d="M1078.51,1139.36L1078.51,1130.98L1065.68,1130.98L1065.68,1031.69L1096.26,1031.69L1096.59,1046.32L1105.13,1046.32L1105.13,1023.31L1016.37,1023.31L1016.37,1046.32L1024.91,1046.32L1025.24,1031.69L1055.65,1031.69L1055.65,1130.98L1042.67,1130.98L1042.67,1139.36L1078.51,1139.36Z" style="fill:rgb(60,60,59);fill-rule:nonzero;"/>
                <path d="M1118.12,1100.07L1176.15,1100.07C1176.48,1095.96 1176.64,1090.7 1176.64,1086.76C1176.64,1067.03 1170.89,1055.69 1145.41,1055.69C1120.59,1055.69 1108.59,1066.7 1108.59,1098.76C1108.59,1127.03 1116.31,1141.17 1144.92,1141.17C1159.22,1141.17 1167.77,1138.87 1176.64,1133.61L1173.19,1126.21C1168.1,1129.17 1160.7,1132.79 1146.23,1132.79C1125.03,1132.79 1118.45,1124.07 1118.12,1100.07ZM1118.29,1092.02C1118.78,1073.44 1125.03,1063.58 1144.75,1063.58C1164.15,1063.58 1167.6,1072.29 1167.6,1086.27C1167.6,1087.58 1167.6,1090.87 1167.44,1092.02L1118.29,1092.02Z" style="fill:rgb(60,60,59);fill-rule:nonzero;"/>
                <path d="M1192.26,1109.28C1192.26,1115.36 1192.75,1121.77 1195.22,1126.87C1199.49,1135.42 1210.51,1141.17 1230.89,1141.17C1264.59,1141.17 1272.64,1129.5 1272.64,1107.63C1272.64,1090.21 1266.07,1083.31 1246.18,1078.87L1227.77,1074.76C1210.34,1070.81 1206.23,1066.05 1206.23,1053.06C1206.23,1039.09 1213.14,1030.21 1235.33,1030.21C1252.42,1030.21 1257.19,1034.65 1259.33,1039.09C1260.32,1041.22 1260.81,1046.48 1260.97,1049.28L1270.67,1049.28C1270.67,1045.66 1270.18,1039.09 1268.86,1035.47C1265.25,1025.94 1255.71,1021.5 1235.99,1021.5C1207.22,1021.5 1196.2,1033.33 1196.2,1054.21C1196.2,1070.48 1202.94,1079.53 1218.89,1082.98L1238.12,1087.25C1259.82,1092.18 1262.29,1097.94 1262.29,1108.95C1262.29,1121.44 1259.66,1132.46 1231.38,1132.46C1215.44,1132.46 1206.89,1127.03 1204.59,1122.6C1203.27,1119.96 1202.12,1115.53 1201.79,1109.12L1192.26,1109.28Z" style="fill:rgb(60,60,59);fill-rule:nonzero;"/>
                <path d="M1332.32,1138.38L1330.51,1130.65C1327.71,1131.64 1323.11,1132.29 1318.51,1132.29C1313.9,1132.29 1311.11,1130.98 1309.63,1129.17C1308.15,1127.2 1307.33,1122.6 1307.33,1116.68L1307.33,1065.88L1326.89,1065.88L1326.89,1057.66L1307.33,1057.66L1307.33,1034.98L1298.78,1034.98L1298.29,1057.66L1286.12,1057.66L1286.12,1065.88L1297.96,1065.88L1297.96,1117.66C1297.96,1126.21 1299.11,1131.31 1301.58,1135.09C1303.88,1138.54 1309.47,1140.84 1316.37,1140.84C1323.11,1140.84 1328.54,1140.02 1332.32,1138.38Z" style="fill:rgb(60,60,59);fill-rule:nonzero;"/>
                <path d="M1446.73,1031.69L1446.73,1023.31L1414.18,1023.31L1414.18,1031.69L1426.67,1031.69L1426.67,1098.27C1426.67,1109.61 1425.52,1117.5 1422.73,1122.43C1417.8,1131.31 1404.15,1132.29 1394.78,1132.29C1380.48,1132.29 1371.6,1129.01 1367.5,1122.1C1364.54,1117.33 1363.71,1108.29 1363.71,1097.94L1363.71,1031.69L1375.88,1031.69L1375.88,1023.31L1342.34,1023.31L1342.34,1031.69L1353.85,1031.69L1353.85,1093.66C1353.85,1106.49 1354.02,1117.66 1357.47,1124.9C1363.71,1138.38 1377.52,1141.17 1394.45,1141.17C1413.19,1141.17 1426.02,1136.73 1431.77,1126.21C1435.88,1118.81 1436.21,1109.94 1436.21,1093.33L1436.21,1031.69L1446.73,1031.69Z" style="fill:rgb(60,60,59);fill-rule:nonzero;"/>
                <path d="M1497.52,1179.47L1497.52,1171.25L1482.07,1171.25L1482.07,1130.98C1485.36,1137.06 1494.73,1141.17 1505.41,1141.17C1530.24,1141.17 1542.07,1132.79 1542.07,1096.79C1542.07,1066.87 1532.7,1055.69 1510.51,1055.69C1497.69,1055.69 1485.52,1059.47 1481.74,1069.17C1481.74,1060.79 1479.61,1056.84 1469.58,1056.84C1467.28,1056.84 1463.66,1057.01 1460.87,1057.5L1461.36,1065.55C1463.17,1065.22 1465.63,1065.22 1467.44,1065.22C1472.37,1065.22 1472.87,1068.84 1472.87,1073.28L1472.87,1171.25L1461.69,1171.25L1461.69,1179.47L1497.52,1179.47ZM1482.07,1082.81C1482.07,1081.17 1482.4,1078.21 1482.73,1077.06C1484.87,1067.85 1495.72,1064.24 1507.88,1064.24C1529.91,1064.24 1532.7,1076.89 1532.7,1097.77C1532.7,1121.77 1529.09,1132.79 1505.25,1132.79C1492.92,1132.79 1485.85,1127.36 1484.21,1124.07C1482.73,1121.28 1482.07,1118.65 1482.07,1113.23L1482.07,1082.81Z" style="fill:rgb(60,60,59);fill-rule:nonzero;"/>
            </g>
            <g id="Seperator" transform="matrix(-42.5916,5.21597e-15,-1.03108e-14,-84.1938,2730.21,396.693)">
                <rect x="0.081" y="-0.756" width="0.052" height="0.905" style="fill:rgb(60,60,59);fill-rule:nonzero;"/>
            </g>
        </g>
        <g id="Signet">
            <g id="Hexagon" transform="matrix(1.0144e-16,-1.65664,1.65664,1.0144e-16,1363.26,1867.51)">
                <path d="M910.349,405.851C912.088,404.847 914.23,404.847 915.969,405.851C926.29,411.81 962.045,432.453 972.366,438.412C974.104,439.416 975.175,441.271 975.175,443.279L975.175,508.4C975.175,510.408 974.104,512.263 972.366,513.267C962.045,519.226 926.29,539.869 915.969,545.828C914.23,546.832 912.088,546.832 910.349,545.828C900.028,539.869 864.273,519.226 853.952,513.267C852.213,512.263 851.142,510.408 851.142,508.4L851.142,443.279C851.142,441.271 852.213,439.416 853.952,438.412C864.273,432.453 900.028,411.81 910.349,405.851Z" style="fill:rgb(107,60,145);"/>
            </g>
            <g id="Partner-H-Gebäude" serif:id="Partner H-Gebäude" transform="matrix(1,0,0,1,1464.62,48.0218)">
                <path d="M764.759,398.519C765.144,397.851 765.779,397.364 766.524,397.164C767.269,396.965 768.062,397.069 768.73,397.455C769.119,397.679 769.521,397.911 769.91,398.136C770.578,398.521 771.065,399.156 771.264,399.901C771.464,400.646 771.359,401.44 770.973,402.108C767.897,407.431 760.769,419.766 757.747,424.994C756.884,426.487 755.29,427.407 753.566,427.407C739.02,427.407 671.903,427.407 657.069,427.407C656.298,427.407 655.559,427.101 655.014,426.555C654.469,426.01 654.162,425.271 654.162,424.5C654.162,424.074 654.162,423.636 654.162,423.211C654.162,422.44 654.469,421.7 655.014,421.155C655.559,420.61 656.298,420.303 657.069,420.303C671.494,420.303 735.246,420.303 749.394,420.303C751.119,420.303 752.713,419.383 753.576,417.889C756.243,413.269 762.045,403.219 764.759,398.519Z" style="fill:rgb(107,60,145);"/>
            </g>
            <g id="Container" transform="matrix(1,0,0,1,1464.62,48.0218)">
                <path d="M565.346,249.021C565.567,248.638 565.931,248.358 566.358,248.243C566.785,248.128 567.24,248.188 567.623,248.409C570.987,250.351 579.312,255.158 582.673,257.099C583.47,257.558 583.743,258.577 583.283,259.374C579.113,266.597 560.543,298.761 556.573,305.638C556.11,306.44 556.11,307.429 556.573,308.231C559.057,312.534 567.019,326.325 569.623,330.835C570.083,331.631 569.81,332.65 569.013,333.11C565.657,335.048 557.357,339.84 553.999,341.778C553.616,341.999 553.161,342.059 552.734,341.944C552.307,341.83 551.943,341.55 551.723,341.167C548.379,335.356 535.947,313.75 532.768,308.225C532.308,307.424 532.308,306.439 532.768,305.638C537.251,297.848 560.625,257.226 565.346,249.021Z" style="fill:rgb(237,102,35);"/>
            </g>
            <g id="C-Gebäude" transform="matrix(1,0,0,1,1464.62,48.0218)">
                <path d="M822.647,274.282C823.105,275.079 822.832,276.096 822.036,276.555C818.682,278.492 810.379,283.285 807.023,285.223C806.64,285.444 806.186,285.504 805.759,285.39C805.332,285.275 804.968,284.996 804.748,284.614C800.095,276.555 777.363,237.181 772.71,229.123C772.25,228.326 772.523,227.307 773.32,226.847C776.689,224.902 785.043,220.079 788.414,218.133C788.797,217.912 789.252,217.852 789.679,217.967C790.106,218.081 790.47,218.361 790.691,218.745C795.335,226.815 818.01,266.223 822.647,274.282Z" style="fill:rgb(213,81,119);"/>
            </g>
            <g id="Partner-D-Gebäude" serif:id="Partner D-Gebäude" transform="matrix(1,0,0,1,1464.62,48.0218)">
                <path d="M680.2,190.658C680.2,192.264 678.898,193.565 677.293,193.565L631.437,193.565C629.831,193.565 628.529,192.264 628.529,190.658L628.529,189.369C628.529,187.764 629.831,186.462 631.437,186.462L677.293,186.462C678.898,186.462 680.2,187.764 680.2,189.369L680.2,190.658Z" style="fill:rgb(107,60,145);"/>
            </g>
            <g transform="matrix(2.66531,0,0,2.66531,2033.5,191.8)">
                <path d="M31.586,41.28C28.917,43.158 28.021,45.253 27.693,48.545C27.465,50.825 28.5,53.625 27.456,55.72C26.935,56.762 24.927,58.284 24.191,59.42C23.601,60.329 23.856,61.582 24.566,62.333C27.087,64.996 27.998,65.807 28.493,69.367C28.819,71.718 27.803,74.244 28.635,76.564C29.276,78.351 30.007,79.489 32.087,79.788C35.113,80.225 36.42,75.593 33.365,75.152C32.583,75.04 33.677,66.383 33.158,65.029C32.263,62.693 29.615,60.676 27.966,58.934C28.091,59.905 28.217,60.876 28.342,61.847C29.407,60.896 30.473,59.946 31.539,58.995C32.259,58.614 32.756,57.73 32.729,56.919C32.632,54.022 31.282,47.352 34.013,45.431C36.524,43.664 34.124,39.493 31.586,41.28Z" style="fill:white;fill-rule:nonzero;"/>
            </g>
            <g transform="matrix(2.66531,0,0,2.66531,2007.01,191.8)">
                <path d="M64.701,45.333C70.11,48.741 65.982,53.369 66.568,57.617C66.838,59.578 68.321,60.009 68.85,61.386C69.8,63.858 69.926,59.653 68.917,61.794C68.599,62.467 67.439,63.01 66.984,63.722C64.68,67.331 69.327,74.382 63.844,76.641C61.023,77.804 62.259,82.457 65.122,81.277C68.706,79.8 70.62,77.401 71.179,73.459C71.519,71.061 70.94,69.129 71.751,66.837C72.275,65.357 73.201,64.869 73.735,63.593C74.221,62.433 74.922,61.236 74.564,59.928C74.216,58.659 73.275,58.706 72.741,57.747C71.55,55.609 72.06,54.198 72.178,51.584C72.38,47.115 70.957,43.594 67.128,41.181C64.503,39.527 62.087,43.685 64.701,45.333Z" style="fill:white;fill-rule:nonzero;"/>
            </g>
        </g>
    </g>
</svg>
